<?xml version="1.0" encoding="UTF-8"?>
<svg id="Layer_1" xmlns="http://www.w3.org/2000/svg" version="1.1" viewBox="0 0 225.9 157.1">
  <!-- Generator: Adobe Illustrator 30.8.2, SVG Export Plug-In . SVG Version: 2.1.4 Build 7)  -->
  <defs>
    <style>
      .st0 {
        fill: #231f20;
      }

      .st1 {
        fill: #19d469;
      }

      .st2 {
        fill: #f659ce;
      }

      .st3 {
        fill: #fff;
      }

      .st4 {
        stroke-width: 4px;
      }

      .st4, .st5 {
        fill: none;
        stroke: #231f20;
        stroke-linejoin: round;
      }

      .st5 {
        stroke-width: 5px;
      }
    </style>
  </defs>
  <g>
    <polygon class="st4" points="219.1 119.1 2.3 149.8 2.3 33.5 219.1 2.7 219.1 119.1"/>
    <g>
      <g>
        <g>
          <g>
            <path class="st4" d="M43.2,84.3v4.6l-7.5,1.1c-1.8.3-3.1.3-3.8.1-.7-.2-1.2-.5-1.5-1-.3-.5-.4-1.5-.4-2.9-2.3.3-4.2,0-5.8-.9-1.6-.9-2.7-2.2-3.2-3.8-.5-1.7-.8-4.2-.8-7.6v-11.8c0-2.6.2-4.6.5-6,.3-1.4.9-2.8,1.9-4.1,1-1.3,2.2-2.4,3.7-3.3,1.5-.8,3.2-1.4,5-1.6,2.2-.3,4.2-.2,5.9.3,1.7.5,3,1.3,3.9,2.3.9,1,1.4,2.2,1.7,3.4.3,1.2.4,3.1.4,5.5v12.4c0,3.4-.2,5.7-.5,7-.3,1.3-1,2.3-1.9,3.2-.9.9-2.2,1.6-3.7,2.2,0,.8.2,1.4.5,1.5.3.2,1,.2,2.2,0l3.5-.5ZM33.2,57.3c0-1.8,0-2.9-.3-3.4-.2-.5-.6-.7-1.2-.6-.5,0-.9.3-1.2.8-.3.4-.4,1.6-.4,3.6v17.9c0,2.2,0,3.6.3,4.1.2.5.6.7,1.3.6.7,0,1.1-.5,1.3-1.1.2-.6.3-2.1.3-4.3v-17.6Z"/>
            <path class="st4" d="M69.5,42.3v25.6c0,2.9,0,5-.3,6.2-.2,1.2-.7,2.5-1.7,3.9-.9,1.4-2.2,2.5-3.7,3.3-1.5.9-3.3,1.4-5.4,1.7-2.3.3-4.3.2-6.1-.3-1.7-.5-3.1-1.3-3.9-2.4-.9-1.1-1.4-2.3-1.5-3.6-.2-1.3-.2-4.1-.2-8.5v-22.6l10-1.4v28.7c0,1.7,0,2.7.3,3.2.2.4.5.6,1.1.5.6,0,1-.4,1.2-.9.2-.5.3-1.8.3-3.7v-28.2l10-1.4Z"/>
            <path class="st4" d="M73.4,41.8l16.6-2.4v7.7l-6.6.9v7.3l6.2-.9v7.3l-6.2.9v8.4l7.3-1v7.7l-17.3,2.4v-38.3Z"/>
            <path class="st4" d="M93.5,38.9l16.6-2.4v7.7l-6.6.9v7.3l6.2-.9v7.3l-6.2.9v8.4l7.3-1v7.7l-17.3,2.4v-38.3Z"/>
            <path class="st4" d="M135.8,32.9v38.3l-8.7,1.2-5.2-16.7v17.4l-8.3,1.2v-38.3l8.3-1.2,5.6,16.4v-17.2l8.3-1.2Z"/>
            <path class="st4" d="M160.9,40.9l-9.2,1.3v-2.8c0-1.3-.1-2.1-.4-2.5-.2-.3-.6-.5-1.2-.4-.6,0-1.1.4-1.4.9-.3.5-.5,1.3-.5,2.3s.2,2.2.5,2.8c.3.6,1.3,1.2,2.8,1.9,4.4,2,7.2,3.8,8.4,5.3,1.2,1.5,1.7,4.2,1.7,7.9s-.3,4.8-1,6.2c-.6,1.4-1.9,2.6-3.7,3.8-1.8,1.1-4,1.9-6.4,2.2-2.7.4-4.9.2-6.8-.5-1.9-.7-3.1-1.8-3.7-3.3-.6-1.5-.9-3.6-.9-6.5v-2.5l9.2-1.3v4.7c0,1.4.1,2.3.4,2.7.3.4.7.5,1.4.4.7,0,1.2-.4,1.5-1,.3-.6.5-1.4.5-2.4,0-2.3-.3-3.7-.9-4.3-.6-.6-2.2-1.5-4.7-2.8-2.5-1.3-4.1-2.2-4.9-2.9-.8-.6-1.5-1.6-2-2.8-.5-1.2-.8-2.9-.8-4.9,0-2.9.4-5.1,1.1-6.6.7-1.5,2-2.7,3.6-3.7,1.7-1,3.7-1.7,6.1-2,2.6-.4,4.8-.3,6.6.3,1.8.6,3,1.5,3.6,2.6.6,1.2.9,3.3.9,6.3v1.5Z"/>
          </g>
          <g>
            <path class="st4" d="M43.2,84.3v4.6l-7.5,1.1c-1.8.3-3.1.3-3.8.1-.7-.2-1.2-.5-1.5-1-.3-.5-.4-1.5-.4-2.9-2.3.3-4.2,0-5.8-.9-1.6-.9-2.7-2.2-3.2-3.8-.5-1.7-.8-4.2-.8-7.6v-11.8c0-2.6.2-4.6.5-6,.3-1.4.9-2.8,1.9-4.1,1-1.3,2.2-2.4,3.7-3.3,1.5-.8,3.2-1.4,5-1.6,2.2-.3,4.2-.2,5.9.3,1.7.5,3,1.3,3.9,2.3.9,1,1.4,2.2,1.7,3.4.3,1.2.4,3.1.4,5.5v12.4c0,3.4-.2,5.7-.5,7-.3,1.3-1,2.3-1.9,3.2-.9.9-2.2,1.6-3.7,2.2,0,.8.2,1.4.5,1.5.3.2,1,.2,2.2,0l3.5-.5ZM33.2,57.3c0-1.8,0-2.9-.3-3.4-.2-.5-.6-.7-1.2-.6-.5,0-.9.3-1.2.8-.3.4-.4,1.6-.4,3.6v17.9c0,2.2,0,3.6.3,4.1.2.5.6.7,1.3.6.7,0,1.1-.5,1.3-1.1.2-.6.3-2.1.3-4.3v-17.6Z"/>
            <path class="st4" d="M69.5,42.3v25.6c0,2.9,0,5-.3,6.2-.2,1.2-.7,2.5-1.7,3.9-.9,1.4-2.2,2.5-3.7,3.3-1.5.9-3.3,1.4-5.4,1.7-2.3.3-4.3.2-6.1-.3-1.7-.5-3.1-1.3-3.9-2.4-.9-1.1-1.4-2.3-1.5-3.6-.2-1.3-.2-4.1-.2-8.5v-22.6l10-1.4v28.7c0,1.7,0,2.7.3,3.2.2.4.5.6,1.1.5.6,0,1-.4,1.2-.9.2-.5.3-1.8.3-3.7v-28.2l10-1.4Z"/>
            <path class="st4" d="M73.4,41.8l16.6-2.4v7.7l-6.6.9v7.3l6.2-.9v7.3l-6.2.9v8.4l7.3-1v7.7l-17.3,2.4v-38.3Z"/>
            <path class="st4" d="M93.5,38.9l16.6-2.4v7.7l-6.6.9v7.3l6.2-.9v7.3l-6.2.9v8.4l7.3-1v7.7l-17.3,2.4v-38.3Z"/>
            <path class="st4" d="M135.8,32.9v38.3l-8.7,1.2-5.2-16.7v17.4l-8.3,1.2v-38.3l8.3-1.2,5.6,16.4v-17.2l8.3-1.2Z"/>
            <path class="st4" d="M160.9,40.9l-9.2,1.3v-2.8c0-1.3-.1-2.1-.4-2.5-.2-.3-.6-.5-1.2-.4-.6,0-1.1.4-1.4.9-.3.5-.5,1.3-.5,2.3s.2,2.2.5,2.8c.3.6,1.3,1.2,2.8,1.9,4.4,2,7.2,3.8,8.4,5.3,1.2,1.5,1.7,4.2,1.7,7.9s-.3,4.8-1,6.2c-.6,1.4-1.9,2.6-3.7,3.8-1.8,1.1-4,1.9-6.4,2.2-2.7.4-4.9.2-6.8-.5-1.9-.7-3.1-1.8-3.7-3.3-.6-1.5-.9-3.6-.9-6.5v-2.5l9.2-1.3v4.7c0,1.4.1,2.3.4,2.7.3.4.7.5,1.4.4.7,0,1.2-.4,1.5-1,.3-.6.5-1.4.5-2.4,0-2.3-.3-3.7-.9-4.3-.6-.6-2.2-1.5-4.7-2.8-2.5-1.3-4.1-2.2-4.9-2.9-.8-.6-1.5-1.6-2-2.8-.5-1.2-.8-2.9-.8-4.9,0-2.9.4-5.1,1.1-6.6.7-1.5,2-2.7,3.6-3.7,1.7-1,3.7-1.7,6.1-2,2.6-.4,4.8-.3,6.6.3,1.8.6,3,1.5,3.6,2.6.6,1.2.9,3.3.9,6.3v1.5Z"/>
          </g>
          <g>
            <path class="st4" d="M43.2,84.3v4.6l-7.5,1.1c-1.8.3-3.1.3-3.8.1-.7-.2-1.2-.5-1.5-1-.3-.5-.4-1.5-.4-2.9-2.3.3-4.2,0-5.8-.9-1.6-.9-2.7-2.2-3.2-3.8-.5-1.7-.8-4.2-.8-7.6v-11.8c0-2.6.2-4.6.5-6,.3-1.4.9-2.8,1.9-4.1,1-1.3,2.2-2.4,3.7-3.3,1.5-.8,3.2-1.4,5-1.6,2.2-.3,4.2-.2,5.9.3,1.7.5,3,1.3,3.9,2.3.9,1,1.4,2.2,1.7,3.4.3,1.2.4,3.1.4,5.5v12.4c0,3.4-.2,5.7-.5,7-.3,1.3-1,2.3-1.9,3.2-.9.9-2.2,1.6-3.7,2.2,0,.8.2,1.4.5,1.5.3.2,1,.2,2.2,0l3.5-.5ZM33.2,57.3c0-1.8,0-2.9-.3-3.4-.2-.5-.6-.7-1.2-.6-.5,0-.9.3-1.2.8-.3.4-.4,1.6-.4,3.6v17.9c0,2.2,0,3.6.3,4.1.2.5.6.7,1.3.6.7,0,1.1-.5,1.3-1.1.2-.6.3-2.1.3-4.3v-17.6Z"/>
            <path class="st4" d="M69.5,42.3v25.6c0,2.9,0,5-.3,6.2-.2,1.2-.7,2.5-1.7,3.9-.9,1.4-2.2,2.5-3.7,3.3-1.5.9-3.3,1.4-5.4,1.7-2.3.3-4.3.2-6.1-.3-1.7-.5-3.1-1.3-3.9-2.4-.9-1.1-1.4-2.3-1.5-3.6-.2-1.3-.2-4.1-.2-8.5v-22.6l10-1.4v28.7c0,1.7,0,2.7.3,3.2.2.4.5.6,1.1.5.6,0,1-.4,1.2-.9.2-.5.3-1.8.3-3.7v-28.2l10-1.4Z"/>
            <path class="st4" d="M73.4,41.8l16.6-2.4v7.7l-6.6.9v7.3l6.2-.9v7.3l-6.2.9v8.4l7.3-1v7.7l-17.3,2.4v-38.3Z"/>
            <path class="st4" d="M93.5,38.9l16.6-2.4v7.7l-6.6.9v7.3l6.2-.9v7.3l-6.2.9v8.4l7.3-1v7.7l-17.3,2.4v-38.3Z"/>
            <path class="st4" d="M135.8,32.9v38.3l-8.7,1.2-5.2-16.7v17.4l-8.3,1.2v-38.3l8.3-1.2,5.6,16.4v-17.2l8.3-1.2Z"/>
            <path class="st4" d="M160.9,40.9l-9.2,1.3v-2.8c0-1.3-.1-2.1-.4-2.5-.2-.3-.6-.5-1.2-.4-.6,0-1.1.4-1.4.9-.3.5-.5,1.3-.5,2.3s.2,2.2.5,2.8c.3.6,1.3,1.2,2.8,1.9,4.4,2,7.2,3.8,8.4,5.3,1.2,1.5,1.7,4.2,1.7,7.9s-.3,4.8-1,6.2c-.6,1.4-1.9,2.6-3.7,3.8-1.8,1.1-4,1.9-6.4,2.2-2.7.4-4.9.2-6.8-.5-1.9-.7-3.1-1.8-3.7-3.3-.6-1.5-.9-3.6-.9-6.5v-2.5l9.2-1.3v4.7c0,1.4.1,2.3.4,2.7.3.4.7.5,1.4.4.7,0,1.2-.4,1.5-1,.3-.6.5-1.4.5-2.4,0-2.3-.3-3.7-.9-4.3-.6-.6-2.2-1.5-4.7-2.8-2.5-1.3-4.1-2.2-4.9-2.9-.8-.6-1.5-1.6-2-2.8-.5-1.2-.8-2.9-.8-4.9,0-2.9.4-5.1,1.1-6.6.7-1.5,2-2.7,3.6-3.7,1.7-1,3.7-1.7,6.1-2,2.6-.4,4.8-.3,6.6.3,1.8.6,3,1.5,3.6,2.6.6,1.2.9,3.3.9,6.3v1.5Z"/>
          </g>
        </g>
        <g>
          <path class="st4" d="M65.1,98.3l-9.2,1.3v-2.8c0-1.3-.1-2.1-.4-2.5-.2-.3-.6-.5-1.2-.4-.6,0-1.1.4-1.4.9-.3.5-.5,1.3-.5,2.3s.2,2.2.5,2.8c.3.6,1.3,1.2,2.8,1.9,4.4,2,7.2,3.8,8.4,5.3s1.7,4.2,1.7,7.9-.3,4.8-1,6.2c-.6,1.4-1.9,2.6-3.7,3.8-1.8,1.1-4,1.9-6.4,2.2-2.7.4-4.9.2-6.8-.5-1.9-.7-3.1-1.8-3.7-3.3-.6-1.5-.9-3.6-.9-6.5v-2.5l9.2-1.3v4.7c0,1.4.1,2.3.4,2.7.3.4.7.5,1.4.4.7,0,1.2-.4,1.5-1,.3-.6.5-1.4.5-2.4,0-2.3-.3-3.7-.9-4.3-.6-.6-2.2-1.5-4.7-2.8-2.5-1.3-4.1-2.2-4.9-2.9-.8-.6-1.5-1.6-2-2.8-.5-1.2-.8-2.9-.8-4.9,0-2.9.4-5.1,1.1-6.6.7-1.5,2-2.7,3.6-3.7,1.7-1,3.7-1.7,6.1-2,2.6-.4,4.8-.3,6.6.3,1.8.6,3,1.5,3.6,2.6.6,1.2.9,3.3.9,6.3v1.5Z"/>
          <path class="st4" d="M92.3,99.6l-10,1.4v-6.7c0-1.9-.1-3.1-.3-3.6-.2-.4-.7-.6-1.4-.5-.8.1-1.3.5-1.6,1.1s-.3,1.9-.3,3.8v17.8c0,1.9.1,3.1.3,3.6s.7.7,1.5.6c.7-.1,1.2-.5,1.5-1.1.2-.6.3-2,.3-4.1v-4.8l10-1.4v1.5c0,4-.3,6.8-.8,8.5-.6,1.7-1.8,3.4-3.7,4.9-1.9,1.5-4.3,2.5-7.1,2.9-2.9.4-5.3.2-7.2-.6-1.9-.8-3.1-2.1-3.8-3.9-.6-1.8-.9-4.5-.9-8.3v-11.2c0-2.8,0-4.8.3-6.2.2-1.4.8-2.8,1.7-4.2.9-1.4,2.2-2.6,3.9-3.6,1.7-1,3.6-1.6,5.7-1.9,2.9-.4,5.3-.2,7.3.7,1.9.9,3.2,2.1,3.8,3.7.6,1.6.9,4.2.9,7.8v3.6Z"/>
          <path class="st4" d="M105.8,81v38.3l-10,1.4v-38.3l10-1.4Z"/>
          <path class="st4" d="M109.8,80.4l16.6-2.4v7.7l-6.6.9v7.3l6.2-.9v7.3l-6.2.9v8.4l7.3-1v7.7l-17.3,2.4v-38.3Z"/>
          <path class="st4" d="M152.1,74.4v38.3l-8.7,1.2-5.2-16.7v17.4l-8.3,1.2v-38.3l8.3-1.2,5.6,16.4v-17.2l8.3-1.2Z"/>
          <path class="st4" d="M179.4,87.2l-10,1.4v-6.7c0-1.9-.1-3.1-.3-3.6-.2-.5-.7-.6-1.4-.5-.8.1-1.3.5-1.6,1.1-.2.6-.3,1.9-.3,3.8v17.8c0,1.9.1,3.1.3,3.6.2.5.7.7,1.5.6.7-.1,1.2-.5,1.5-1.1.2-.6.3-2,.3-4.1v-4.8l10-1.4v1.5c0,4-.3,6.8-.8,8.5-.6,1.7-1.8,3.4-3.7,4.9-1.9,1.5-4.3,2.5-7.1,2.9-2.9.4-5.3.2-7.2-.6-1.9-.8-3.1-2.1-3.8-3.9-.6-1.8-.9-4.5-.9-8.3v-11.2c0-2.8,0-4.8.3-6.2.2-1.4.8-2.8,1.7-4.2.9-1.4,2.2-2.6,3.9-3.6,1.7-1,3.6-1.6,5.7-1.9,2.9-.4,5.3-.2,7.3.7,1.9.9,3.2,2.1,3.8,3.7.6,1.6.9,4.2.9,7.8v3.6Z"/>
          <path class="st4" d="M182.9,70l16.6-2.4v7.7l-6.6.9v7.3l6.2-.9v7.3l-6.2.9v8.4l7.3-1v7.7l-17.3,2.4v-38.3Z"/>
        </g>
        <g>
          <path class="st4" d="M170,58.7c0-4.7,3-8.3,8.1-9.1,5.2-.7,8.1,2.1,8.1,6.8s-3,8.4-8.1,9.1c-5.1.7-8.1-2.1-8.1-6.8ZM181.2,57.1c0-4.1-.6-7.4-3-7.1-2.4.3-3,3.9-3,7.9s.6,7.5,3,7.1c2.4-.3,3-3.9,3-8Z"/>
          <path class="st4" d="M187,63.6c1.4-.3,2.6-1.2,2.6-3.7v-9.7l-2,.3v-.3c.4-.2.6-.3.9-.5.6-.4,1-1,1.2-2,.5-2.9,1.3-4.9,2.8-6.5,1.4-1.5,3.1-2.4,4.9-2.6,1.9-.3,3.7.5,3.7,2.3s-.6,2-1.8,2.6h-.5c-.6-2.2-1.8-4.1-3.1-3.9-1.4.2-1.6,2-1.6,3.3v5.1l4.8-.9-.5,2-4.4.6v9.6c0,2.7,1.1,3.1,3.5,2.9v.3c-2.6.3-4,.5-5.6.7-1.5.2-3.5.5-5.1.8v-.3Z"/>
        </g>
      </g>
      <g>
        <g>
          <g>
            <path class="st4" d="M41.2,82.3v4.6l-7.5,1.1c-1.8.3-3.1.3-3.8.1-.7-.2-1.2-.5-1.5-1-.3-.5-.4-1.5-.4-2.9-2.3.3-4.2,0-5.8-.9-1.6-.9-2.7-2.2-3.2-3.8-.5-1.7-.8-4.2-.8-7.6v-11.8c0-2.6.2-4.6.5-6,.3-1.4.9-2.8,1.9-4.1,1-1.3,2.2-2.4,3.7-3.3,1.5-.8,3.2-1.4,5-1.6,2.2-.3,4.2-.2,5.9.3,1.7.5,3,1.3,3.9,2.3.9,1,1.4,2.2,1.7,3.4.3,1.2.4,3.1.4,5.5v12.4c0,3.4-.2,5.7-.5,7-.3,1.3-1,2.3-1.9,3.2-.9.9-2.2,1.6-3.7,2.2,0,.8.2,1.4.5,1.5.3.2,1,.2,2.2,0l3.5-.5ZM31.2,55.3c0-1.8,0-2.9-.3-3.4-.2-.5-.6-.7-1.2-.6-.5,0-.9.3-1.2.8-.3.4-.4,1.6-.4,3.6v17.9c0,2.2,0,3.6.3,4.1.2.5.6.7,1.3.6.7,0,1.1-.5,1.3-1.1.2-.6.3-2.1.3-4.3v-17.6Z"/>
            <path class="st4" d="M67.5,40.3v25.6c0,2.9,0,5-.3,6.2-.2,1.2-.7,2.5-1.7,3.9-.9,1.4-2.2,2.5-3.7,3.3-1.5.9-3.3,1.4-5.4,1.7-2.3.3-4.3.2-6.1-.3-1.7-.5-3.1-1.3-3.9-2.4-.9-1.1-1.4-2.3-1.5-3.6-.2-1.3-.2-4.1-.2-8.5v-22.6l10-1.4v28.7c0,1.7,0,2.7.3,3.2.2.4.5.6,1.1.5.6,0,1-.4,1.2-.9.2-.5.3-1.8.3-3.7v-28.2l10-1.4Z"/>
            <path class="st4" d="M71.4,39.8l16.6-2.4v7.7l-6.6.9v7.3l6.2-.9v7.3l-6.2.9v8.4l7.3-1v7.7l-17.3,2.4v-38.3Z"/>
            <path class="st4" d="M91.5,36.9l16.6-2.4v7.7l-6.6.9v7.3l6.2-.9v7.3l-6.2.9v8.4l7.3-1v7.7l-17.3,2.4v-38.3Z"/>
            <path class="st4" d="M133.8,30.9v38.3l-8.7,1.2-5.2-16.7v17.4l-8.3,1.2v-38.3l8.3-1.2,5.6,16.4v-17.2l8.3-1.2Z"/>
            <path class="st4" d="M158.9,38.9l-9.2,1.3v-2.8c0-1.3-.1-2.1-.4-2.5-.2-.3-.6-.5-1.2-.4-.6,0-1.1.4-1.4.9-.3.5-.5,1.3-.5,2.3s.2,2.2.5,2.8c.3.6,1.3,1.2,2.8,1.9,4.4,2,7.2,3.8,8.4,5.3,1.2,1.5,1.7,4.2,1.7,7.9s-.3,4.8-1,6.2c-.6,1.4-1.9,2.6-3.7,3.8-1.8,1.1-4,1.9-6.4,2.2-2.7.4-4.9.2-6.8-.5-1.9-.7-3.1-1.8-3.7-3.3-.6-1.5-.9-3.6-.9-6.5v-2.5l9.2-1.3v4.7c0,1.4.1,2.3.4,2.7.3.4.7.5,1.4.4.7,0,1.2-.4,1.5-1,.3-.6.5-1.4.5-2.4,0-2.3-.3-3.7-.9-4.3-.6-.6-2.2-1.5-4.7-2.8-2.5-1.3-4.1-2.2-4.9-2.9-.8-.6-1.5-1.6-2-2.8-.5-1.2-.8-2.9-.8-4.9,0-2.9.4-5.1,1.1-6.6.7-1.5,2-2.7,3.6-3.7,1.7-1,3.7-1.7,6.1-2,2.6-.4,4.8-.3,6.6.3,1.8.6,3,1.5,3.6,2.6.6,1.2.9,3.3.9,6.3v1.5Z"/>
          </g>
          <g>
            <path class="st4" d="M41.2,82.3v4.6l-7.5,1.1c-1.8.3-3.1.3-3.8.1-.7-.2-1.2-.5-1.5-1-.3-.5-.4-1.5-.4-2.9-2.3.3-4.2,0-5.8-.9-1.6-.9-2.7-2.2-3.2-3.8-.5-1.7-.8-4.2-.8-7.6v-11.8c0-2.6.2-4.6.5-6,.3-1.4.9-2.8,1.9-4.1,1-1.3,2.2-2.4,3.7-3.3,1.5-.8,3.2-1.4,5-1.6,2.2-.3,4.2-.2,5.9.3,1.7.5,3,1.3,3.9,2.3.9,1,1.4,2.2,1.7,3.4.3,1.2.4,3.1.4,5.5v12.4c0,3.4-.2,5.7-.5,7-.3,1.3-1,2.3-1.9,3.2-.9.9-2.2,1.6-3.7,2.2,0,.8.2,1.4.5,1.5.3.2,1,.2,2.2,0l3.5-.5ZM31.2,55.3c0-1.8,0-2.9-.3-3.4-.2-.5-.6-.7-1.2-.6-.5,0-.9.3-1.2.8-.3.4-.4,1.6-.4,3.6v17.9c0,2.2,0,3.6.3,4.1.2.5.6.7,1.3.6.7,0,1.1-.5,1.3-1.1.2-.6.3-2.1.3-4.3v-17.6Z"/>
            <path class="st4" d="M67.5,40.3v25.6c0,2.9,0,5-.3,6.2-.2,1.2-.7,2.5-1.7,3.9-.9,1.4-2.2,2.5-3.7,3.3-1.5.9-3.3,1.4-5.4,1.7-2.3.3-4.3.2-6.1-.3-1.7-.5-3.1-1.3-3.9-2.4-.9-1.1-1.4-2.3-1.5-3.6-.2-1.3-.2-4.1-.2-8.5v-22.6l10-1.4v28.7c0,1.7,0,2.7.3,3.2.2.4.5.6,1.1.5.6,0,1-.4,1.2-.9.2-.5.3-1.8.3-3.7v-28.2l10-1.4Z"/>
            <path class="st4" d="M71.4,39.8l16.6-2.4v7.7l-6.6.9v7.3l6.2-.9v7.3l-6.2.9v8.4l7.3-1v7.7l-17.3,2.4v-38.3Z"/>
            <path class="st4" d="M91.5,36.9l16.6-2.4v7.7l-6.6.9v7.3l6.2-.9v7.3l-6.2.9v8.4l7.3-1v7.7l-17.3,2.4v-38.3Z"/>
            <path class="st4" d="M133.8,30.9v38.3l-8.7,1.2-5.2-16.7v17.4l-8.3,1.2v-38.3l8.3-1.2,5.6,16.4v-17.2l8.3-1.2Z"/>
            <path class="st4" d="M158.9,38.9l-9.2,1.3v-2.8c0-1.3-.1-2.1-.4-2.5-.2-.3-.6-.5-1.2-.4-.6,0-1.1.4-1.4.9-.3.5-.5,1.3-.5,2.3s.2,2.2.5,2.8c.3.6,1.3,1.2,2.8,1.9,4.4,2,7.2,3.8,8.4,5.3,1.2,1.5,1.7,4.2,1.7,7.9s-.3,4.8-1,6.2c-.6,1.4-1.9,2.6-3.7,3.8-1.8,1.1-4,1.9-6.4,2.2-2.7.4-4.9.2-6.8-.5-1.9-.7-3.1-1.8-3.7-3.3-.6-1.5-.9-3.6-.9-6.5v-2.5l9.2-1.3v4.7c0,1.4.1,2.3.4,2.7.3.4.7.5,1.4.4.7,0,1.2-.4,1.5-1,.3-.6.5-1.4.5-2.4,0-2.3-.3-3.7-.9-4.3-.6-.6-2.2-1.5-4.7-2.8-2.5-1.3-4.1-2.2-4.9-2.9-.8-.6-1.5-1.6-2-2.8-.5-1.2-.8-2.9-.8-4.9,0-2.9.4-5.1,1.1-6.6.7-1.5,2-2.7,3.6-3.7,1.7-1,3.7-1.7,6.1-2,2.6-.4,4.8-.3,6.6.3,1.8.6,3,1.5,3.6,2.6.6,1.2.9,3.3.9,6.3v1.5Z"/>
          </g>
          <g>
            <path class="st4" d="M41.2,82.3v4.6l-7.5,1.1c-1.8.3-3.1.3-3.8.1-.7-.2-1.2-.5-1.5-1-.3-.5-.4-1.5-.4-2.9-2.3.3-4.2,0-5.8-.9-1.6-.9-2.7-2.2-3.2-3.8-.5-1.7-.8-4.2-.8-7.6v-11.8c0-2.6.2-4.6.5-6,.3-1.4.9-2.8,1.9-4.1,1-1.3,2.2-2.4,3.7-3.3,1.5-.8,3.2-1.4,5-1.6,2.2-.3,4.2-.2,5.9.3,1.7.5,3,1.3,3.9,2.3.9,1,1.4,2.2,1.7,3.4.3,1.2.4,3.1.4,5.5v12.4c0,3.4-.2,5.7-.5,7-.3,1.3-1,2.3-1.9,3.2-.9.9-2.2,1.6-3.7,2.2,0,.8.2,1.4.5,1.5.3.2,1,.2,2.2,0l3.5-.5ZM31.2,55.3c0-1.8,0-2.9-.3-3.4-.2-.5-.6-.7-1.2-.6-.5,0-.9.3-1.2.8-.3.4-.4,1.6-.4,3.6v17.9c0,2.2,0,3.6.3,4.1.2.5.6.7,1.3.6.7,0,1.1-.5,1.3-1.1.2-.6.3-2.1.3-4.3v-17.6Z"/>
            <path class="st4" d="M67.5,40.3v25.6c0,2.9,0,5-.3,6.2-.2,1.2-.7,2.5-1.7,3.9-.9,1.4-2.2,2.5-3.7,3.3-1.5.9-3.3,1.4-5.4,1.7-2.3.3-4.3.2-6.1-.3-1.7-.5-3.1-1.3-3.9-2.4-.9-1.1-1.4-2.3-1.5-3.6-.2-1.3-.2-4.1-.2-8.5v-22.6l10-1.4v28.7c0,1.7,0,2.7.3,3.2.2.4.5.6,1.1.5.6,0,1-.4,1.2-.9.2-.5.3-1.8.3-3.7v-28.2l10-1.4Z"/>
            <path class="st4" d="M71.4,39.8l16.6-2.4v7.7l-6.6.9v7.3l6.2-.9v7.3l-6.2.9v8.4l7.3-1v7.7l-17.3,2.4v-38.3Z"/>
            <path class="st4" d="M91.5,36.9l16.6-2.4v7.7l-6.6.9v7.3l6.2-.9v7.3l-6.2.9v8.4l7.3-1v7.7l-17.3,2.4v-38.3Z"/>
            <path class="st4" d="M133.8,30.9v38.3l-8.7,1.2-5.2-16.7v17.4l-8.3,1.2v-38.3l8.3-1.2,5.6,16.4v-17.2l8.3-1.2Z"/>
            <path class="st4" d="M158.9,38.9l-9.2,1.3v-2.8c0-1.3-.1-2.1-.4-2.5-.2-.3-.6-.5-1.2-.4-.6,0-1.1.4-1.4.9-.3.5-.5,1.3-.5,2.3s.2,2.2.5,2.8c.3.6,1.3,1.2,2.8,1.9,4.4,2,7.2,3.8,8.4,5.3,1.2,1.5,1.7,4.2,1.7,7.9s-.3,4.8-1,6.2c-.6,1.4-1.9,2.6-3.7,3.8-1.8,1.1-4,1.9-6.4,2.2-2.7.4-4.9.2-6.8-.5-1.9-.7-3.1-1.8-3.7-3.3-.6-1.5-.9-3.6-.9-6.5v-2.5l9.2-1.3v4.7c0,1.4.1,2.3.4,2.7.3.4.7.5,1.4.4.7,0,1.2-.4,1.5-1,.3-.6.5-1.4.5-2.4,0-2.3-.3-3.7-.9-4.3-.6-.6-2.2-1.5-4.7-2.8-2.5-1.3-4.1-2.2-4.9-2.9-.8-.6-1.5-1.6-2-2.8-.5-1.2-.8-2.9-.8-4.9,0-2.9.4-5.1,1.1-6.6.7-1.5,2-2.7,3.6-3.7,1.7-1,3.7-1.7,6.1-2,2.6-.4,4.8-.3,6.6.3,1.8.6,3,1.5,3.6,2.6.6,1.2.9,3.3.9,6.3v1.5Z"/>
          </g>
        </g>
        <g>
          <path class="st4" d="M63.1,96.3l-9.2,1.3v-2.8c0-1.3-.1-2.1-.4-2.5-.2-.3-.6-.5-1.2-.4-.6,0-1.1.4-1.4.9-.3.5-.5,1.3-.5,2.3s.2,2.2.5,2.8c.3.6,1.3,1.2,2.8,1.9,4.4,2,7.2,3.8,8.4,5.3s1.7,4.2,1.7,7.9-.3,4.8-1,6.2c-.6,1.4-1.9,2.6-3.7,3.8-1.8,1.1-4,1.9-6.4,2.2-2.7.4-4.9.2-6.8-.5-1.9-.7-3.1-1.8-3.7-3.3-.6-1.5-.9-3.6-.9-6.5v-2.5l9.2-1.3v4.7c0,1.4.1,2.3.4,2.7.3.4.7.5,1.4.4.7,0,1.2-.4,1.5-1,.3-.6.5-1.4.5-2.4,0-2.3-.3-3.7-.9-4.3-.6-.6-2.2-1.5-4.7-2.8-2.5-1.3-4.1-2.2-4.9-2.9-.8-.6-1.5-1.6-2-2.8-.5-1.2-.8-2.9-.8-4.9,0-2.9.4-5.1,1.1-6.6.7-1.5,2-2.7,3.6-3.7,1.7-1,3.7-1.7,6.1-2,2.6-.4,4.8-.3,6.6.3,1.8.6,3,1.5,3.6,2.6.6,1.2.9,3.3.9,6.3v1.5Z"/>
          <path class="st4" d="M90.3,97.6l-10,1.4v-6.7c0-1.9-.1-3.1-.3-3.6-.2-.4-.7-.6-1.4-.5-.8.1-1.3.5-1.6,1.1s-.3,1.9-.3,3.8v17.8c0,1.9.1,3.1.3,3.6s.7.7,1.5.6c.7-.1,1.2-.5,1.5-1.1.2-.6.3-2,.3-4.1v-4.8l10-1.4v1.5c0,4-.3,6.8-.8,8.5-.6,1.7-1.8,3.4-3.7,4.9-1.9,1.5-4.3,2.5-7.1,2.9-2.9.4-5.3.2-7.2-.6-1.9-.8-3.1-2.1-3.8-3.9-.6-1.8-.9-4.5-.9-8.3v-11.2c0-2.8,0-4.8.3-6.2.2-1.4.8-2.8,1.7-4.2.9-1.4,2.2-2.6,3.9-3.6,1.7-1,3.6-1.6,5.7-1.9,2.9-.4,5.3-.2,7.3.7,1.9.9,3.2,2.1,3.8,3.7.6,1.6.9,4.2.9,7.8v3.6Z"/>
          <path class="st4" d="M103.8,79v38.3l-10,1.4v-38.3l10-1.4Z"/>
          <path class="st4" d="M107.8,78.4l16.6-2.4v7.7l-6.6.9v7.3l6.2-.9v7.3l-6.2.9v8.4l7.3-1v7.7l-17.3,2.4v-38.3Z"/>
          <path class="st4" d="M150.1,72.4v38.3l-8.7,1.2-5.2-16.7v17.4l-8.3,1.2v-38.3l8.3-1.2,5.6,16.4v-17.2l8.3-1.2Z"/>
          <path class="st4" d="M177.4,85.2l-10,1.4v-6.7c0-1.9-.1-3.1-.3-3.6-.2-.5-.7-.6-1.4-.5-.8.1-1.3.5-1.6,1.1-.2.6-.3,1.9-.3,3.8v17.8c0,1.9.1,3.1.3,3.6.2.5.7.7,1.5.6.7-.1,1.2-.5,1.5-1.1.2-.6.3-2,.3-4.1v-4.8l10-1.4v1.5c0,4-.3,6.8-.8,8.5-.6,1.7-1.8,3.4-3.7,4.9-1.9,1.5-4.3,2.5-7.1,2.9-2.9.4-5.3.2-7.2-.6-1.9-.8-3.1-2.1-3.8-3.9-.6-1.8-.9-4.5-.9-8.3v-11.2c0-2.8,0-4.8.3-6.2.2-1.4.8-2.8,1.7-4.2.9-1.4,2.2-2.6,3.9-3.6,1.7-1,3.6-1.6,5.7-1.9,2.9-.4,5.3-.2,7.3.7,1.9.9,3.2,2.1,3.8,3.7.6,1.6.9,4.2.9,7.8v3.6Z"/>
          <path class="st4" d="M180.9,68l16.6-2.4v7.7l-6.6.9v7.3l6.2-.9v7.3l-6.2.9v8.4l7.3-1v7.7l-17.3,2.4v-38.3Z"/>
        </g>
        <g>
          <path class="st4" d="M168,56.7c0-4.7,3-8.3,8.1-9.1,5.2-.7,8.1,2.1,8.1,6.8s-3,8.4-8.1,9.1c-5.1.7-8.1-2.1-8.1-6.8ZM179.2,55.1c0-4.1-.6-7.4-3-7.1-2.4.3-3,3.9-3,7.9s.6,7.5,3,7.1c2.4-.3,3-3.9,3-8Z"/>
          <path class="st4" d="M185,61.6c1.4-.3,2.6-1.2,2.6-3.7v-9.7l-2,.3v-.3c.4-.2.6-.3.9-.5.6-.4,1-1,1.2-2,.5-2.9,1.3-4.9,2.8-6.5,1.4-1.5,3.1-2.4,4.9-2.6,1.9-.3,3.7.5,3.7,2.3s-.6,2-1.8,2.6h-.5c-.6-2.2-1.8-4.1-3.1-3.9-1.4.2-1.6,2-1.6,3.3v5.1l4.8-.9-.5,2-4.4.6v9.6c0,2.7,1.1,3.1,3.5,2.9v.3c-2.6.3-4,.5-5.6.7-1.5.2-3.5.5-5.1.8v-.3Z"/>
        </g>
      </g>
      <g>
        <g>
          <g>
            <path class="st4" d="M41.2,82.3v4.6l-7.5,1.1c-1.8.3-3.1.3-3.8.1-.7-.2-1.2-.5-1.5-1-.3-.5-.4-1.5-.4-2.9-2.3.3-4.2,0-5.8-.9-1.6-.9-2.7-2.2-3.2-3.8-.5-1.7-.8-4.2-.8-7.6v-11.8c0-2.6.2-4.6.5-6,.3-1.4.9-2.8,1.9-4.1,1-1.3,2.2-2.4,3.7-3.3,1.5-.8,3.2-1.4,5-1.6,2.2-.3,4.2-.2,5.9.3,1.7.5,3,1.3,3.9,2.3.9,1,1.4,2.2,1.7,3.4.3,1.2.4,3.1.4,5.5v12.4c0,3.4-.2,5.7-.5,7-.3,1.3-1,2.3-1.9,3.2-.9.9-2.2,1.6-3.7,2.2,0,.8.2,1.4.5,1.5.3.2,1,.2,2.2,0l3.5-.5ZM31.2,55.3c0-1.8,0-2.9-.3-3.4-.2-.5-.6-.7-1.2-.6-.5,0-.9.3-1.2.8-.3.4-.4,1.6-.4,3.6v17.9c0,2.2,0,3.6.3,4.1.2.5.6.7,1.3.6.7,0,1.1-.5,1.3-1.1.2-.6.3-2.1.3-4.3v-17.6Z"/>
            <path class="st4" d="M67.5,40.3v25.6c0,2.9,0,5-.3,6.2-.2,1.2-.7,2.5-1.7,3.9-.9,1.4-2.2,2.5-3.7,3.3-1.5.9-3.3,1.4-5.4,1.7-2.3.3-4.3.2-6.1-.3-1.7-.5-3.1-1.3-3.9-2.4-.9-1.1-1.4-2.3-1.5-3.6-.2-1.3-.2-4.1-.2-8.5v-22.6l10-1.4v28.7c0,1.7,0,2.7.3,3.2.2.4.5.6,1.1.5.6,0,1-.4,1.2-.9.2-.5.3-1.8.3-3.7v-28.2l10-1.4Z"/>
            <path class="st4" d="M71.4,39.8l16.6-2.4v7.7l-6.6.9v7.3l6.2-.9v7.3l-6.2.9v8.4l7.3-1v7.7l-17.3,2.4v-38.3Z"/>
            <path class="st4" d="M91.5,36.9l16.6-2.4v7.7l-6.6.9v7.3l6.2-.9v7.3l-6.2.9v8.4l7.3-1v7.7l-17.3,2.4v-38.3Z"/>
            <path class="st4" d="M133.8,30.9v38.3l-8.7,1.2-5.2-16.7v17.4l-8.3,1.2v-38.3l8.3-1.2,5.6,16.4v-17.2l8.3-1.2Z"/>
            <path class="st4" d="M158.9,38.9l-9.2,1.3v-2.8c0-1.3-.1-2.1-.4-2.5-.2-.3-.6-.5-1.2-.4-.6,0-1.1.4-1.4.9-.3.5-.5,1.3-.5,2.3s.2,2.2.5,2.8c.3.6,1.3,1.2,2.8,1.9,4.4,2,7.2,3.8,8.4,5.3,1.2,1.5,1.7,4.2,1.7,7.9s-.3,4.8-1,6.2c-.6,1.4-1.9,2.6-3.7,3.8-1.8,1.1-4,1.9-6.4,2.2-2.7.4-4.9.2-6.8-.5-1.9-.7-3.1-1.8-3.7-3.3-.6-1.5-.9-3.6-.9-6.5v-2.5l9.2-1.3v4.7c0,1.4.1,2.3.4,2.7.3.4.7.5,1.4.4.7,0,1.2-.4,1.5-1,.3-.6.5-1.4.5-2.4,0-2.3-.3-3.7-.9-4.3-.6-.6-2.2-1.5-4.7-2.8-2.5-1.3-4.1-2.2-4.9-2.9-.8-.6-1.5-1.6-2-2.8-.5-1.2-.8-2.9-.8-4.9,0-2.9.4-5.1,1.1-6.6.7-1.5,2-2.7,3.6-3.7,1.7-1,3.7-1.7,6.1-2,2.6-.4,4.8-.3,6.6.3,1.8.6,3,1.5,3.6,2.6.6,1.2.9,3.3.9,6.3v1.5Z"/>
          </g>
          <g>
            <path class="st4" d="M41.2,82.3v4.6l-7.5,1.1c-1.8.3-3.1.3-3.8.1-.7-.2-1.2-.5-1.5-1-.3-.5-.4-1.5-.4-2.9-2.3.3-4.2,0-5.8-.9-1.6-.9-2.7-2.2-3.2-3.8-.5-1.7-.8-4.2-.8-7.6v-11.8c0-2.6.2-4.6.5-6,.3-1.4.9-2.8,1.9-4.1,1-1.3,2.2-2.4,3.7-3.3,1.5-.8,3.2-1.4,5-1.6,2.2-.3,4.2-.2,5.9.3,1.7.5,3,1.3,3.9,2.3.9,1,1.4,2.2,1.7,3.4.3,1.2.4,3.1.4,5.5v12.4c0,3.4-.2,5.7-.5,7-.3,1.3-1,2.3-1.9,3.2-.9.9-2.2,1.6-3.7,2.2,0,.8.2,1.4.5,1.5.3.2,1,.2,2.2,0l3.5-.5ZM31.2,55.3c0-1.8,0-2.9-.3-3.4-.2-.5-.6-.7-1.2-.6-.5,0-.9.3-1.2.8-.3.4-.4,1.6-.4,3.6v17.9c0,2.2,0,3.6.3,4.1.2.5.6.7,1.3.6.7,0,1.1-.5,1.3-1.1.2-.6.3-2.1.3-4.3v-17.6Z"/>
            <path class="st4" d="M67.5,40.3v25.6c0,2.9,0,5-.3,6.2-.2,1.2-.7,2.5-1.7,3.9-.9,1.4-2.2,2.5-3.7,3.3-1.5.9-3.3,1.4-5.4,1.7-2.3.3-4.3.2-6.1-.3-1.7-.5-3.1-1.3-3.9-2.4-.9-1.1-1.4-2.3-1.5-3.6-.2-1.3-.2-4.1-.2-8.5v-22.6l10-1.4v28.7c0,1.7,0,2.7.3,3.2.2.4.5.6,1.1.5.6,0,1-.4,1.2-.9.2-.5.3-1.8.3-3.7v-28.2l10-1.4Z"/>
            <path class="st4" d="M71.4,39.8l16.6-2.4v7.7l-6.6.9v7.3l6.2-.9v7.3l-6.2.9v8.4l7.3-1v7.7l-17.3,2.4v-38.3Z"/>
            <path class="st4" d="M91.5,36.9l16.6-2.4v7.7l-6.6.9v7.3l6.2-.9v7.3l-6.2.9v8.4l7.3-1v7.7l-17.3,2.4v-38.3Z"/>
            <path class="st4" d="M133.8,30.9v38.3l-8.7,1.2-5.2-16.7v17.4l-8.3,1.2v-38.3l8.3-1.2,5.6,16.4v-17.2l8.3-1.2Z"/>
            <path class="st4" d="M158.9,38.9l-9.2,1.3v-2.8c0-1.3-.1-2.1-.4-2.5-.2-.3-.6-.5-1.2-.4-.6,0-1.1.4-1.4.9-.3.5-.5,1.3-.5,2.3s.2,2.2.5,2.8c.3.6,1.3,1.2,2.8,1.9,4.4,2,7.2,3.8,8.4,5.3,1.2,1.5,1.7,4.2,1.7,7.9s-.3,4.8-1,6.2c-.6,1.4-1.9,2.6-3.7,3.8-1.8,1.1-4,1.9-6.4,2.2-2.7.4-4.9.2-6.8-.5-1.9-.7-3.1-1.8-3.7-3.3-.6-1.5-.9-3.6-.9-6.5v-2.5l9.2-1.3v4.7c0,1.4.1,2.3.4,2.7.3.4.7.5,1.4.4.7,0,1.2-.4,1.5-1,.3-.6.5-1.4.5-2.4,0-2.3-.3-3.7-.9-4.3-.6-.6-2.2-1.5-4.7-2.8-2.5-1.3-4.1-2.2-4.9-2.9-.8-.6-1.5-1.6-2-2.8-.5-1.2-.8-2.9-.8-4.9,0-2.9.4-5.1,1.1-6.6.7-1.5,2-2.7,3.6-3.7,1.7-1,3.7-1.7,6.1-2,2.6-.4,4.8-.3,6.6.3,1.8.6,3,1.5,3.6,2.6.6,1.2.9,3.3.9,6.3v1.5Z"/>
          </g>
          <g>
            <path class="st4" d="M41.2,82.3v4.6l-7.5,1.1c-1.8.3-3.1.3-3.8.1-.7-.2-1.2-.5-1.5-1-.3-.5-.4-1.5-.4-2.9-2.3.3-4.2,0-5.8-.9-1.6-.9-2.7-2.2-3.2-3.8-.5-1.7-.8-4.2-.8-7.6v-11.8c0-2.6.2-4.6.5-6,.3-1.4.9-2.8,1.9-4.1,1-1.3,2.2-2.4,3.7-3.3,1.5-.8,3.2-1.4,5-1.6,2.2-.3,4.2-.2,5.9.3,1.7.5,3,1.3,3.9,2.3.9,1,1.4,2.2,1.7,3.4.3,1.2.4,3.1.4,5.5v12.4c0,3.4-.2,5.7-.5,7-.3,1.3-1,2.3-1.9,3.2-.9.9-2.2,1.6-3.7,2.2,0,.8.2,1.4.5,1.5.3.2,1,.2,2.2,0l3.5-.5ZM31.2,55.3c0-1.8,0-2.9-.3-3.4-.2-.5-.6-.7-1.2-.6-.5,0-.9.3-1.2.8-.3.4-.4,1.6-.4,3.6v17.9c0,2.2,0,3.6.3,4.1.2.5.6.7,1.3.6.7,0,1.1-.5,1.3-1.1.2-.6.3-2.1.3-4.3v-17.6Z"/>
            <path class="st4" d="M67.5,40.3v25.6c0,2.9,0,5-.3,6.2-.2,1.2-.7,2.5-1.7,3.9-.9,1.4-2.2,2.5-3.7,3.3-1.5.9-3.3,1.4-5.4,1.7-2.3.3-4.3.2-6.1-.3-1.7-.5-3.1-1.3-3.9-2.4-.9-1.1-1.4-2.3-1.5-3.6-.2-1.3-.2-4.1-.2-8.5v-22.6l10-1.4v28.7c0,1.7,0,2.7.3,3.2.2.4.5.6,1.1.5.6,0,1-.4,1.2-.9.2-.5.3-1.8.3-3.7v-28.2l10-1.4Z"/>
            <path class="st4" d="M71.4,39.8l16.6-2.4v7.7l-6.6.9v7.3l6.2-.9v7.3l-6.2.9v8.4l7.3-1v7.7l-17.3,2.4v-38.3Z"/>
            <path class="st4" d="M91.5,36.9l16.6-2.4v7.7l-6.6.9v7.3l6.2-.9v7.3l-6.2.9v8.4l7.3-1v7.7l-17.3,2.4v-38.3Z"/>
            <path class="st4" d="M133.8,30.9v38.3l-8.7,1.2-5.2-16.7v17.4l-8.3,1.2v-38.3l8.3-1.2,5.6,16.4v-17.2l8.3-1.2Z"/>
            <path class="st4" d="M158.9,38.9l-9.2,1.3v-2.8c0-1.3-.1-2.1-.4-2.5-.2-.3-.6-.5-1.2-.4-.6,0-1.1.4-1.4.9-.3.5-.5,1.3-.5,2.3s.2,2.2.5,2.8c.3.6,1.3,1.2,2.8,1.9,4.4,2,7.2,3.8,8.4,5.3,1.2,1.5,1.7,4.2,1.7,7.9s-.3,4.8-1,6.2c-.6,1.4-1.9,2.6-3.7,3.8-1.8,1.1-4,1.9-6.4,2.2-2.7.4-4.9.2-6.8-.5-1.9-.7-3.1-1.8-3.7-3.3-.6-1.5-.9-3.6-.9-6.5v-2.5l9.2-1.3v4.7c0,1.4.1,2.3.4,2.7.3.4.7.5,1.4.4.7,0,1.2-.4,1.5-1,.3-.6.5-1.4.5-2.4,0-2.3-.3-3.7-.9-4.3-.6-.6-2.2-1.5-4.7-2.8-2.5-1.3-4.1-2.2-4.9-2.9-.8-.6-1.5-1.6-2-2.8-.5-1.2-.8-2.9-.8-4.9,0-2.9.4-5.1,1.1-6.6.7-1.5,2-2.7,3.6-3.7,1.7-1,3.7-1.7,6.1-2,2.6-.4,4.8-.3,6.6.3,1.8.6,3,1.5,3.6,2.6.6,1.2.9,3.3.9,6.3v1.5Z"/>
          </g>
        </g>
        <g>
          <path class="st4" d="M63.1,96.3l-9.2,1.3v-2.8c0-1.3-.1-2.1-.4-2.5-.2-.3-.6-.5-1.2-.4-.6,0-1.1.4-1.4.9-.3.5-.5,1.3-.5,2.3s.2,2.2.5,2.8c.3.6,1.3,1.2,2.8,1.9,4.4,2,7.2,3.8,8.4,5.3s1.7,4.2,1.7,7.9-.3,4.8-1,6.2c-.6,1.4-1.9,2.6-3.7,3.8-1.8,1.1-4,1.9-6.4,2.2-2.7.4-4.9.2-6.8-.5-1.9-.7-3.1-1.8-3.7-3.3-.6-1.5-.9-3.6-.9-6.5v-2.5l9.2-1.3v4.7c0,1.4.1,2.3.4,2.7.3.4.7.5,1.4.4.7,0,1.2-.4,1.5-1,.3-.6.5-1.4.5-2.4,0-2.3-.3-3.7-.9-4.3-.6-.6-2.2-1.5-4.7-2.8-2.5-1.3-4.1-2.2-4.9-2.9-.8-.6-1.5-1.6-2-2.8-.5-1.2-.8-2.9-.8-4.9,0-2.9.4-5.1,1.1-6.6.7-1.5,2-2.7,3.6-3.7,1.7-1,3.7-1.7,6.1-2,2.6-.4,4.8-.3,6.6.3,1.8.6,3,1.5,3.6,2.6.6,1.2.9,3.3.9,6.3v1.5Z"/>
          <path class="st4" d="M90.3,97.6l-10,1.4v-6.7c0-1.9-.1-3.1-.3-3.6-.2-.4-.7-.6-1.4-.5-.8.1-1.3.5-1.6,1.1s-.3,1.9-.3,3.8v17.8c0,1.9.1,3.1.3,3.6s.7.7,1.5.6c.7-.1,1.2-.5,1.5-1.1.2-.6.3-2,.3-4.1v-4.8l10-1.4v1.5c0,4-.3,6.8-.8,8.5-.6,1.7-1.8,3.4-3.7,4.9-1.9,1.5-4.3,2.5-7.1,2.9-2.9.4-5.3.2-7.2-.6-1.9-.8-3.1-2.1-3.8-3.9-.6-1.8-.9-4.5-.9-8.3v-11.2c0-2.8,0-4.8.3-6.2.2-1.4.8-2.8,1.7-4.2.9-1.4,2.2-2.6,3.9-3.6,1.7-1,3.6-1.6,5.7-1.9,2.9-.4,5.3-.2,7.3.7,1.9.9,3.2,2.1,3.8,3.7.6,1.6.9,4.2.9,7.8v3.6Z"/>
          <path class="st4" d="M103.8,79v38.3l-10,1.4v-38.3l10-1.4Z"/>
          <path class="st4" d="M107.8,78.4l16.6-2.4v7.7l-6.6.9v7.3l6.2-.9v7.3l-6.2.9v8.4l7.3-1v7.7l-17.3,2.4v-38.3Z"/>
          <path class="st4" d="M150.1,72.4v38.3l-8.7,1.2-5.2-16.7v17.4l-8.3,1.2v-38.3l8.3-1.2,5.6,16.4v-17.2l8.3-1.2Z"/>
          <path class="st4" d="M177.4,85.2l-10,1.4v-6.7c0-1.9-.1-3.1-.3-3.6-.2-.5-.7-.6-1.4-.5-.8.1-1.3.5-1.6,1.1-.2.6-.3,1.9-.3,3.8v17.8c0,1.9.1,3.1.3,3.6.2.5.7.7,1.5.6.7-.1,1.2-.5,1.5-1.1.2-.6.3-2,.3-4.1v-4.8l10-1.4v1.5c0,4-.3,6.8-.8,8.5-.6,1.7-1.8,3.4-3.7,4.9-1.9,1.5-4.3,2.5-7.1,2.9-2.9.4-5.3.2-7.2-.6-1.9-.8-3.1-2.1-3.8-3.9-.6-1.8-.9-4.5-.9-8.3v-11.2c0-2.8,0-4.8.3-6.2.2-1.4.8-2.8,1.7-4.2.9-1.4,2.2-2.6,3.9-3.6,1.7-1,3.6-1.6,5.7-1.9,2.9-.4,5.3-.2,7.3.7,1.9.9,3.2,2.1,3.8,3.7.6,1.6.9,4.2.9,7.8v3.6Z"/>
          <path class="st4" d="M180.9,68l16.6-2.4v7.7l-6.6.9v7.3l6.2-.9v7.3l-6.2.9v8.4l7.3-1v7.7l-17.3,2.4v-38.3Z"/>
        </g>
        <g>
          <path class="st4" d="M168,56.7c0-4.7,3-8.3,8.1-9.1,5.2-.7,8.1,2.1,8.1,6.8s-3,8.4-8.1,9.1c-5.1.7-8.1-2.1-8.1-6.8ZM179.2,55.1c0-4.1-.6-7.4-3-7.1-2.4.3-3,3.9-3,7.9s.6,7.5,3,7.1c2.4-.3,3-3.9,3-8Z"/>
          <path class="st4" d="M185,61.6c1.4-.3,2.6-1.2,2.6-3.7v-9.7l-2,.3v-.3c.4-.2.6-.3.9-.5.6-.4,1-1,1.2-2,.5-2.9,1.3-4.9,2.8-6.5,1.4-1.5,3.1-2.4,4.9-2.6,1.9-.3,3.7.5,3.7,2.3s-.6,2-1.8,2.6h-.5c-.6-2.2-1.8-4.1-3.1-3.9-1.4.2-1.6,2-1.6,3.3v5.1l4.8-.9-.5,2-4.4.6v9.6c0,2.7,1.1,3.1,3.5,2.9v.3c-2.6.3-4,.5-5.6.7-1.5.2-3.5.5-5.1.8v-.3Z"/>
        </g>
      </g>
    </g>
  </g>
  <g>
    <polygon class="st5" points="223.1 123.1 6.3 153.8 6.3 37.5 223.1 6.7 223.1 123.1"/>
    <g>
      <g>
        <g>
          <g>
            <path class="st5" d="M47.2,88.3v4.6l-7.5,1.1c-1.8.3-3.1.3-3.8.1-.7-.2-1.2-.5-1.5-1-.3-.5-.4-1.5-.4-2.9-2.3.3-4.2,0-5.8-.9-1.6-.9-2.7-2.2-3.2-3.8-.5-1.7-.8-4.2-.8-7.6v-11.8c0-2.6.2-4.6.5-6,.3-1.4.9-2.8,1.9-4.1,1-1.3,2.2-2.4,3.7-3.3,1.5-.8,3.2-1.4,5-1.6,2.2-.3,4.2-.2,5.9.3,1.7.5,3,1.3,3.9,2.3.9,1,1.4,2.2,1.7,3.4.3,1.2.4,3.1.4,5.5v12.4c0,3.4-.2,5.7-.5,7-.3,1.3-1,2.3-1.9,3.2-.9.9-2.2,1.6-3.7,2.2,0,.8.2,1.4.5,1.5.3.2,1,.2,2.2,0l3.5-.5ZM37.2,61.3c0-1.8,0-2.9-.3-3.4-.2-.5-.6-.7-1.2-.6-.5,0-.9.3-1.2.8-.3.4-.4,1.6-.4,3.6v17.9c0,2.2,0,3.6.3,4.1.2.5.6.7,1.3.6.7,0,1.1-.5,1.3-1.1.2-.6.3-2.1.3-4.3v-17.6Z"/>
            <path class="st5" d="M73.5,46.3v25.6c0,2.9,0,5-.3,6.2-.2,1.2-.7,2.5-1.7,3.9-.9,1.4-2.2,2.5-3.7,3.3-1.5.9-3.3,1.4-5.4,1.7-2.3.3-4.3.2-6.1-.3-1.7-.5-3.1-1.3-3.9-2.4-.9-1.1-1.4-2.3-1.5-3.6-.2-1.3-.2-4.1-.2-8.5v-22.6l10-1.4v28.7c0,1.7,0,2.7.3,3.2.2.4.5.6,1.1.5.6,0,1-.4,1.2-.9.2-.5.3-1.8.3-3.7v-28.2l10-1.4Z"/>
            <path class="st5" d="M77.4,45.8l16.6-2.4v7.7l-6.6.9v7.3l6.2-.9v7.3l-6.2.9v8.4l7.3-1v7.7l-17.3,2.4v-38.3Z"/>
            <path class="st5" d="M97.5,42.9l16.6-2.4v7.7l-6.6.9v7.3l6.2-.9v7.3l-6.2.9v8.4l7.3-1v7.7l-17.3,2.4v-38.3Z"/>
            <path class="st5" d="M139.8,36.9v38.3l-8.7,1.2-5.2-16.7v17.4l-8.3,1.2v-38.3l8.3-1.2,5.6,16.4v-17.2l8.3-1.2Z"/>
            <path class="st5" d="M164.9,44.9l-9.2,1.3v-2.8c0-1.3-.1-2.1-.4-2.5-.2-.3-.6-.5-1.2-.4-.6,0-1.1.4-1.4.9-.3.5-.5,1.3-.5,2.3s.2,2.2.5,2.8c.3.6,1.3,1.2,2.8,1.9,4.4,2,7.2,3.8,8.4,5.3,1.2,1.5,1.7,4.2,1.7,7.9s-.3,4.8-1,6.2c-.6,1.4-1.9,2.6-3.7,3.8-1.8,1.1-4,1.9-6.4,2.2-2.7.4-4.9.2-6.8-.5-1.9-.7-3.1-1.8-3.7-3.3-.6-1.5-.9-3.6-.9-6.5v-2.5l9.2-1.3v4.7c0,1.4.1,2.3.4,2.7.3.4.7.5,1.4.4.7,0,1.2-.4,1.5-1,.3-.6.5-1.4.5-2.4,0-2.3-.3-3.7-.9-4.3-.6-.6-2.2-1.5-4.7-2.8-2.5-1.3-4.1-2.2-4.9-2.9-.8-.6-1.5-1.6-2-2.8-.5-1.2-.8-2.9-.8-4.9,0-2.9.4-5.1,1.1-6.6.7-1.5,2-2.7,3.6-3.7,1.7-1,3.7-1.7,6.1-2,2.6-.4,4.8-.3,6.6.3,1.8.6,3,1.5,3.6,2.6.6,1.2.9,3.3.9,6.3v1.5Z"/>
          </g>
          <g>
            <path class="st5" d="M47.2,88.3v4.6l-7.5,1.1c-1.8.3-3.1.3-3.8.1-.7-.2-1.2-.5-1.5-1-.3-.5-.4-1.5-.4-2.9-2.3.3-4.2,0-5.8-.9-1.6-.9-2.7-2.2-3.2-3.8-.5-1.7-.8-4.2-.8-7.6v-11.8c0-2.6.2-4.6.5-6,.3-1.4.9-2.8,1.9-4.1,1-1.3,2.2-2.4,3.7-3.3,1.5-.8,3.2-1.4,5-1.6,2.2-.3,4.2-.2,5.9.3,1.7.5,3,1.3,3.9,2.3.9,1,1.4,2.2,1.7,3.4.3,1.2.4,3.1.4,5.5v12.4c0,3.4-.2,5.7-.5,7-.3,1.3-1,2.3-1.9,3.2-.9.9-2.2,1.6-3.7,2.2,0,.8.2,1.4.5,1.5.3.2,1,.2,2.2,0l3.5-.5ZM37.2,61.3c0-1.8,0-2.9-.3-3.4-.2-.5-.6-.7-1.2-.6-.5,0-.9.3-1.2.8-.3.4-.4,1.6-.4,3.6v17.9c0,2.2,0,3.6.3,4.1.2.5.6.7,1.3.6.7,0,1.1-.5,1.3-1.1.2-.6.3-2.1.3-4.3v-17.6Z"/>
            <path class="st5" d="M73.5,46.3v25.6c0,2.9,0,5-.3,6.2-.2,1.2-.7,2.5-1.7,3.9-.9,1.4-2.2,2.5-3.7,3.3-1.5.9-3.3,1.4-5.4,1.7-2.3.3-4.3.2-6.1-.3-1.7-.5-3.1-1.3-3.9-2.4-.9-1.1-1.4-2.3-1.5-3.6-.2-1.3-.2-4.1-.2-8.5v-22.6l10-1.4v28.7c0,1.7,0,2.7.3,3.2.2.4.5.6,1.1.5.6,0,1-.4,1.2-.9.2-.5.3-1.8.3-3.7v-28.2l10-1.4Z"/>
            <path class="st5" d="M77.4,45.8l16.6-2.4v7.7l-6.6.9v7.3l6.2-.9v7.3l-6.2.9v8.4l7.3-1v7.7l-17.3,2.4v-38.3Z"/>
            <path class="st5" d="M97.5,42.9l16.6-2.4v7.7l-6.6.9v7.3l6.2-.9v7.3l-6.2.9v8.4l7.3-1v7.7l-17.3,2.4v-38.3Z"/>
            <path class="st5" d="M139.8,36.9v38.3l-8.7,1.2-5.2-16.7v17.4l-8.3,1.2v-38.3l8.3-1.2,5.6,16.4v-17.2l8.3-1.2Z"/>
            <path class="st5" d="M164.9,44.9l-9.2,1.3v-2.8c0-1.3-.1-2.1-.4-2.5-.2-.3-.6-.5-1.2-.4-.6,0-1.1.4-1.4.9-.3.5-.5,1.3-.5,2.3s.2,2.2.5,2.8c.3.6,1.3,1.2,2.8,1.9,4.4,2,7.2,3.8,8.4,5.3,1.2,1.5,1.7,4.2,1.7,7.9s-.3,4.8-1,6.2c-.6,1.4-1.9,2.6-3.7,3.8-1.8,1.1-4,1.9-6.4,2.2-2.7.4-4.9.2-6.8-.5-1.9-.7-3.1-1.8-3.7-3.3-.6-1.5-.9-3.6-.9-6.5v-2.5l9.2-1.3v4.7c0,1.4.1,2.3.4,2.7.3.4.7.5,1.4.4.7,0,1.2-.4,1.5-1,.3-.6.5-1.4.5-2.4,0-2.3-.3-3.7-.9-4.3-.6-.6-2.2-1.5-4.7-2.8-2.5-1.3-4.1-2.2-4.9-2.9-.8-.6-1.5-1.6-2-2.8-.5-1.2-.8-2.9-.8-4.9,0-2.9.4-5.1,1.1-6.6.7-1.5,2-2.7,3.6-3.7,1.7-1,3.7-1.7,6.1-2,2.6-.4,4.8-.3,6.6.3,1.8.6,3,1.5,3.6,2.6.6,1.2.9,3.3.9,6.3v1.5Z"/>
          </g>
          <g>
            <path class="st5" d="M47.2,88.3v4.6l-7.5,1.1c-1.8.3-3.1.3-3.8.1-.7-.2-1.2-.5-1.5-1-.3-.5-.4-1.5-.4-2.9-2.3.3-4.2,0-5.8-.9-1.6-.9-2.7-2.2-3.2-3.8-.5-1.7-.8-4.2-.8-7.6v-11.8c0-2.6.2-4.6.5-6,.3-1.4.9-2.8,1.9-4.1,1-1.3,2.2-2.4,3.7-3.3,1.5-.8,3.2-1.4,5-1.6,2.2-.3,4.2-.2,5.9.3,1.7.5,3,1.3,3.9,2.3.9,1,1.4,2.2,1.7,3.4.3,1.2.4,3.1.4,5.5v12.4c0,3.4-.2,5.7-.5,7-.3,1.3-1,2.3-1.9,3.2-.9.9-2.2,1.6-3.7,2.2,0,.8.2,1.4.5,1.5.3.2,1,.2,2.2,0l3.5-.5ZM37.2,61.3c0-1.8,0-2.9-.3-3.4-.2-.5-.6-.7-1.2-.6-.5,0-.9.3-1.2.8-.3.4-.4,1.6-.4,3.6v17.9c0,2.2,0,3.6.3,4.1.2.5.6.7,1.3.6.7,0,1.1-.5,1.3-1.1.2-.6.3-2.1.3-4.3v-17.6Z"/>
            <path class="st5" d="M73.5,46.3v25.6c0,2.9,0,5-.3,6.2-.2,1.2-.7,2.5-1.7,3.9-.9,1.4-2.2,2.5-3.7,3.3-1.5.9-3.3,1.4-5.4,1.7-2.3.3-4.3.2-6.1-.3-1.7-.5-3.1-1.3-3.9-2.4-.9-1.1-1.4-2.3-1.5-3.6-.2-1.3-.2-4.1-.2-8.5v-22.6l10-1.4v28.7c0,1.7,0,2.7.3,3.2.2.4.5.6,1.1.5.6,0,1-.4,1.2-.9.2-.5.3-1.8.3-3.7v-28.2l10-1.4Z"/>
            <path class="st5" d="M77.4,45.8l16.6-2.4v7.7l-6.6.9v7.3l6.2-.9v7.3l-6.2.9v8.4l7.3-1v7.7l-17.3,2.4v-38.3Z"/>
            <path class="st5" d="M97.5,42.9l16.6-2.4v7.7l-6.6.9v7.3l6.2-.9v7.3l-6.2.9v8.4l7.3-1v7.7l-17.3,2.4v-38.3Z"/>
            <path class="st5" d="M139.8,36.9v38.3l-8.7,1.2-5.2-16.7v17.4l-8.3,1.2v-38.3l8.3-1.2,5.6,16.4v-17.2l8.3-1.2Z"/>
            <path class="st5" d="M164.9,44.9l-9.2,1.3v-2.8c0-1.3-.1-2.1-.4-2.5-.2-.3-.6-.5-1.2-.4-.6,0-1.1.4-1.4.9-.3.5-.5,1.3-.5,2.3s.2,2.2.5,2.8c.3.6,1.3,1.2,2.8,1.9,4.4,2,7.2,3.8,8.4,5.3,1.2,1.5,1.7,4.2,1.7,7.9s-.3,4.8-1,6.2c-.6,1.4-1.9,2.6-3.7,3.8-1.8,1.1-4,1.9-6.4,2.2-2.7.4-4.9.2-6.8-.5-1.9-.7-3.1-1.8-3.7-3.3-.6-1.5-.9-3.6-.9-6.5v-2.5l9.2-1.3v4.7c0,1.4.1,2.3.4,2.7.3.4.7.5,1.4.4.7,0,1.2-.4,1.5-1,.3-.6.5-1.4.5-2.4,0-2.3-.3-3.7-.9-4.3-.6-.6-2.2-1.5-4.7-2.8-2.5-1.3-4.1-2.2-4.9-2.9-.8-.6-1.5-1.6-2-2.8-.5-1.2-.8-2.9-.8-4.9,0-2.9.4-5.1,1.1-6.6.7-1.5,2-2.7,3.6-3.7,1.7-1,3.7-1.7,6.1-2,2.6-.4,4.8-.3,6.6.3,1.8.6,3,1.5,3.6,2.6.6,1.2.9,3.3.9,6.3v1.5Z"/>
          </g>
        </g>
        <g>
          <path class="st5" d="M69.1,102.3l-9.2,1.3v-2.8c0-1.3-.1-2.1-.4-2.5-.2-.3-.6-.5-1.2-.4-.6,0-1.1.4-1.4.9-.3.5-.5,1.3-.5,2.3s.2,2.2.5,2.8c.3.6,1.3,1.2,2.8,1.9,4.4,2,7.2,3.8,8.4,5.3s1.7,4.2,1.7,7.9-.3,4.8-1,6.2c-.6,1.4-1.9,2.6-3.7,3.8-1.8,1.1-4,1.9-6.4,2.2-2.7.4-4.9.2-6.8-.5-1.9-.7-3.1-1.8-3.7-3.3-.6-1.5-.9-3.6-.9-6.5v-2.5l9.2-1.3v4.7c0,1.4.1,2.3.4,2.7.3.4.7.5,1.4.4.7,0,1.2-.4,1.5-1,.3-.6.5-1.4.5-2.4,0-2.3-.3-3.7-.9-4.3-.6-.6-2.2-1.5-4.7-2.8-2.5-1.3-4.1-2.2-4.9-2.9-.8-.6-1.5-1.6-2-2.8-.5-1.2-.8-2.9-.8-4.9,0-2.9.4-5.1,1.1-6.6.7-1.5,2-2.7,3.6-3.7,1.7-1,3.7-1.7,6.1-2,2.6-.4,4.8-.3,6.6.3,1.8.6,3,1.5,3.6,2.6.6,1.2.9,3.3.9,6.3v1.5Z"/>
          <path class="st5" d="M96.3,103.6l-10,1.4v-6.7c0-1.9-.1-3.1-.3-3.6-.2-.4-.7-.6-1.4-.5-.8.1-1.3.5-1.6,1.1s-.3,1.9-.3,3.8v17.8c0,1.9.1,3.1.3,3.6s.7.7,1.5.6c.7-.1,1.2-.5,1.5-1.1.2-.6.3-2,.3-4.1v-4.8l10-1.4v1.5c0,4-.3,6.8-.8,8.5-.6,1.7-1.8,3.4-3.7,4.9-1.9,1.5-4.3,2.5-7.1,2.9-2.9.4-5.3.2-7.2-.6-1.9-.8-3.1-2.1-3.8-3.9-.6-1.8-.9-4.5-.9-8.3v-11.2c0-2.8,0-4.8.3-6.2.2-1.4.8-2.8,1.7-4.2.9-1.4,2.2-2.6,3.9-3.6,1.7-1,3.6-1.6,5.7-1.9,2.9-.4,5.3-.2,7.3.7,1.9.9,3.2,2.1,3.8,3.7.6,1.6.9,4.2.9,7.8v3.6Z"/>
          <path class="st5" d="M109.8,85v38.3l-10,1.4v-38.3l10-1.4Z"/>
          <path class="st5" d="M113.8,84.4l16.6-2.4v7.7l-6.6.9v7.3l6.2-.9v7.3l-6.2.9v8.4l7.3-1v7.7l-17.3,2.4v-38.3Z"/>
          <path class="st5" d="M156.1,78.4v38.3l-8.7,1.2-5.2-16.7v17.4l-8.3,1.2v-38.3l8.3-1.2,5.6,16.4v-17.2l8.3-1.2Z"/>
          <path class="st5" d="M183.4,91.2l-10,1.4v-6.7c0-1.9-.1-3.1-.3-3.6-.2-.5-.7-.6-1.4-.5-.8.1-1.3.5-1.6,1.1-.2.6-.3,1.9-.3,3.8v17.8c0,1.9.1,3.1.3,3.6.2.5.7.7,1.5.6.7-.1,1.2-.5,1.5-1.1.2-.6.3-2,.3-4.1v-4.8l10-1.4v1.5c0,4-.3,6.8-.8,8.5-.6,1.7-1.8,3.4-3.7,4.9-1.9,1.5-4.3,2.5-7.1,2.9-2.9.4-5.3.2-7.2-.6-1.9-.8-3.1-2.1-3.8-3.9-.6-1.8-.9-4.5-.9-8.3v-11.2c0-2.8,0-4.8.3-6.2.2-1.4.8-2.8,1.7-4.2.9-1.4,2.2-2.6,3.9-3.6,1.7-1,3.6-1.6,5.7-1.9,2.9-.4,5.3-.2,7.3.7,1.9.9,3.2,2.1,3.8,3.7.6,1.6.9,4.2.9,7.8v3.6Z"/>
          <path class="st5" d="M186.9,74l16.6-2.4v7.7l-6.6.9v7.3l6.2-.9v7.3l-6.2.9v8.4l7.3-1v7.7l-17.3,2.4v-38.3Z"/>
        </g>
        <g>
          <path class="st5" d="M174,62.7c0-4.7,3-8.3,8.1-9.1,5.2-.7,8.1,2.1,8.1,6.8s-3,8.4-8.1,9.1c-5.1.7-8.1-2.1-8.1-6.8ZM185.2,61.1c0-4.1-.6-7.4-3-7.1-2.4.3-3,3.9-3,7.9s.6,7.5,3,7.1c2.4-.3,3-3.9,3-8Z"/>
          <path class="st5" d="M191,67.6c1.4-.3,2.6-1.2,2.6-3.7v-9.7l-2,.3v-.3c.4-.2.6-.3.9-.5.6-.4,1-1,1.2-2,.5-2.9,1.3-4.9,2.8-6.5,1.4-1.5,3.1-2.4,4.9-2.6,1.9-.3,3.7.5,3.7,2.3s-.6,2-1.8,2.6h-.5c-.6-2.2-1.8-4.1-3.1-3.9-1.4.2-1.6,2-1.6,3.3v5.1l4.8-.9-.5,2-4.4.6v9.6c0,2.7,1.1,3.1,3.5,2.9v.3c-2.6.3-4,.5-5.6.7-1.5.2-3.5.5-5.1.8v-.3Z"/>
        </g>
      </g>
      <g>
        <g>
          <g>
            <path class="st5" d="M45.2,86.3v4.6l-7.5,1.1c-1.8.3-3.1.3-3.8.1-.7-.2-1.2-.5-1.5-1-.3-.5-.4-1.5-.4-2.9-2.3.3-4.2,0-5.8-.9-1.6-.9-2.7-2.2-3.2-3.8-.5-1.7-.8-4.2-.8-7.6v-11.8c0-2.6.2-4.6.5-6,.3-1.4.9-2.8,1.9-4.1,1-1.3,2.2-2.4,3.7-3.3,1.5-.8,3.2-1.4,5-1.6,2.2-.3,4.2-.2,5.9.3,1.7.5,3,1.3,3.9,2.3.9,1,1.4,2.2,1.7,3.4.3,1.2.4,3.1.4,5.5v12.4c0,3.4-.2,5.7-.5,7-.3,1.3-1,2.3-1.9,3.2-.9.9-2.2,1.6-3.7,2.2,0,.8.2,1.4.5,1.5.3.2,1,.2,2.2,0l3.5-.5ZM35.2,59.3c0-1.8,0-2.9-.3-3.4-.2-.5-.6-.7-1.2-.6-.5,0-.9.3-1.2.8-.3.4-.4,1.6-.4,3.6v17.9c0,2.2,0,3.6.3,4.1.2.5.6.7,1.3.6.7,0,1.1-.5,1.3-1.1.2-.6.3-2.1.3-4.3v-17.6Z"/>
            <path class="st5" d="M71.5,44.3v25.6c0,2.9,0,5-.3,6.2-.2,1.2-.7,2.5-1.7,3.9-.9,1.4-2.2,2.5-3.7,3.3-1.5.9-3.3,1.4-5.4,1.7-2.3.3-4.3.2-6.1-.3-1.7-.5-3.1-1.3-3.9-2.4-.9-1.1-1.4-2.3-1.5-3.6-.2-1.3-.2-4.1-.2-8.5v-22.6l10-1.4v28.7c0,1.7,0,2.7.3,3.2.2.4.5.6,1.1.5.6,0,1-.4,1.2-.9.2-.5.3-1.8.3-3.7v-28.2l10-1.4Z"/>
            <path class="st5" d="M75.4,43.8l16.6-2.4v7.7l-6.6.9v7.3l6.2-.9v7.3l-6.2.9v8.4l7.3-1v7.7l-17.3,2.4v-38.3Z"/>
            <path class="st5" d="M95.5,40.9l16.6-2.4v7.7l-6.6.9v7.3l6.2-.9v7.3l-6.2.9v8.4l7.3-1v7.7l-17.3,2.4v-38.3Z"/>
            <path class="st5" d="M137.8,34.9v38.3l-8.7,1.2-5.2-16.7v17.4l-8.3,1.2v-38.3l8.3-1.2,5.6,16.4v-17.2l8.3-1.2Z"/>
            <path class="st5" d="M162.9,42.9l-9.2,1.3v-2.8c0-1.3-.1-2.1-.4-2.5-.2-.3-.6-.5-1.2-.4-.6,0-1.1.4-1.4.9-.3.5-.5,1.3-.5,2.3s.2,2.2.5,2.8c.3.6,1.3,1.2,2.8,1.9,4.4,2,7.2,3.8,8.4,5.3,1.2,1.5,1.7,4.2,1.7,7.9s-.3,4.8-1,6.2c-.6,1.4-1.9,2.6-3.7,3.8-1.8,1.1-4,1.9-6.4,2.2-2.7.4-4.9.2-6.8-.5-1.9-.7-3.1-1.8-3.7-3.3-.6-1.5-.9-3.6-.9-6.5v-2.5l9.2-1.3v4.7c0,1.4.1,2.3.4,2.7.3.4.7.5,1.4.4.7,0,1.2-.4,1.5-1,.3-.6.5-1.4.5-2.4,0-2.3-.3-3.7-.9-4.3-.6-.6-2.2-1.5-4.7-2.8-2.5-1.3-4.1-2.2-4.9-2.9-.8-.6-1.5-1.6-2-2.8-.5-1.2-.8-2.9-.8-4.9,0-2.9.4-5.1,1.1-6.6.7-1.5,2-2.7,3.6-3.7,1.7-1,3.7-1.7,6.1-2,2.6-.4,4.8-.3,6.6.3,1.8.6,3,1.5,3.6,2.6.6,1.2.9,3.3.9,6.3v1.5Z"/>
          </g>
          <g>
            <path class="st5" d="M45.2,86.3v4.6l-7.5,1.1c-1.8.3-3.1.3-3.8.1-.7-.2-1.2-.5-1.5-1-.3-.5-.4-1.5-.4-2.9-2.3.3-4.2,0-5.8-.9-1.6-.9-2.7-2.2-3.2-3.8-.5-1.7-.8-4.2-.8-7.6v-11.8c0-2.6.2-4.6.5-6,.3-1.4.9-2.8,1.9-4.1,1-1.3,2.2-2.4,3.7-3.3,1.5-.8,3.2-1.4,5-1.6,2.2-.3,4.2-.2,5.9.3,1.7.5,3,1.3,3.9,2.3.9,1,1.4,2.2,1.7,3.4.3,1.2.4,3.1.4,5.5v12.4c0,3.4-.2,5.7-.5,7-.3,1.3-1,2.3-1.9,3.2-.9.9-2.2,1.6-3.7,2.2,0,.8.2,1.4.5,1.5.3.2,1,.2,2.2,0l3.5-.5ZM35.2,59.3c0-1.8,0-2.9-.3-3.4-.2-.5-.6-.7-1.2-.6-.5,0-.9.3-1.2.8-.3.4-.4,1.6-.4,3.6v17.9c0,2.2,0,3.6.3,4.1.2.5.6.7,1.3.6.7,0,1.1-.5,1.3-1.1.2-.6.3-2.1.3-4.3v-17.6Z"/>
            <path class="st5" d="M71.5,44.3v25.6c0,2.9,0,5-.3,6.2-.2,1.2-.7,2.5-1.7,3.9-.9,1.4-2.2,2.5-3.7,3.3-1.5.9-3.3,1.4-5.4,1.7-2.3.3-4.3.2-6.1-.3-1.7-.5-3.1-1.3-3.9-2.4-.9-1.1-1.4-2.3-1.5-3.6-.2-1.3-.2-4.1-.2-8.5v-22.6l10-1.4v28.7c0,1.7,0,2.7.3,3.2.2.4.5.6,1.1.5.6,0,1-.4,1.2-.9.2-.5.3-1.8.3-3.7v-28.2l10-1.4Z"/>
            <path class="st5" d="M75.4,43.8l16.6-2.4v7.7l-6.6.9v7.3l6.2-.9v7.3l-6.2.9v8.4l7.3-1v7.7l-17.3,2.4v-38.3Z"/>
            <path class="st5" d="M95.5,40.9l16.6-2.4v7.7l-6.6.9v7.3l6.2-.9v7.3l-6.2.9v8.4l7.3-1v7.7l-17.3,2.4v-38.3Z"/>
            <path class="st5" d="M137.8,34.9v38.3l-8.7,1.2-5.2-16.7v17.4l-8.3,1.2v-38.3l8.3-1.2,5.6,16.4v-17.2l8.3-1.2Z"/>
            <path class="st5" d="M162.9,42.9l-9.2,1.3v-2.8c0-1.3-.1-2.1-.4-2.5-.2-.3-.6-.5-1.2-.4-.6,0-1.1.4-1.4.9-.3.5-.5,1.3-.5,2.3s.2,2.2.5,2.8c.3.6,1.3,1.2,2.8,1.9,4.4,2,7.2,3.8,8.4,5.3,1.2,1.5,1.7,4.2,1.7,7.9s-.3,4.8-1,6.2c-.6,1.4-1.9,2.6-3.7,3.8-1.8,1.1-4,1.9-6.4,2.2-2.7.4-4.9.2-6.8-.5-1.9-.7-3.1-1.8-3.7-3.3-.6-1.5-.9-3.6-.9-6.5v-2.5l9.2-1.3v4.7c0,1.4.1,2.3.4,2.7.3.4.7.5,1.4.4.7,0,1.2-.4,1.5-1,.3-.6.5-1.4.5-2.4,0-2.3-.3-3.7-.9-4.3-.6-.6-2.2-1.5-4.7-2.8-2.5-1.3-4.1-2.2-4.9-2.9-.8-.6-1.5-1.6-2-2.8-.5-1.2-.8-2.9-.8-4.9,0-2.9.4-5.1,1.1-6.6.7-1.5,2-2.7,3.6-3.7,1.7-1,3.7-1.7,6.1-2,2.6-.4,4.8-.3,6.6.3,1.8.6,3,1.5,3.6,2.6.6,1.2.9,3.3.9,6.3v1.5Z"/>
          </g>
          <g>
            <path class="st5" d="M45.2,86.3v4.6l-7.5,1.1c-1.8.3-3.1.3-3.8.1-.7-.2-1.2-.5-1.5-1-.3-.5-.4-1.5-.4-2.9-2.3.3-4.2,0-5.8-.9-1.6-.9-2.7-2.2-3.2-3.8-.5-1.7-.8-4.2-.8-7.6v-11.8c0-2.6.2-4.6.5-6,.3-1.4.9-2.8,1.9-4.1,1-1.3,2.2-2.4,3.7-3.3,1.5-.8,3.2-1.4,5-1.6,2.2-.3,4.2-.2,5.9.3,1.7.5,3,1.3,3.9,2.3.9,1,1.4,2.2,1.7,3.4.3,1.2.4,3.1.4,5.5v12.4c0,3.4-.2,5.7-.5,7-.3,1.3-1,2.3-1.9,3.2-.9.9-2.2,1.6-3.7,2.2,0,.8.2,1.4.5,1.5.3.2,1,.2,2.2,0l3.5-.5ZM35.2,59.3c0-1.8,0-2.9-.3-3.4-.2-.5-.6-.7-1.2-.6-.5,0-.9.3-1.2.8-.3.4-.4,1.6-.4,3.6v17.9c0,2.2,0,3.6.3,4.1.2.5.6.7,1.3.6.7,0,1.1-.5,1.3-1.1.2-.6.3-2.1.3-4.3v-17.6Z"/>
            <path class="st5" d="M71.5,44.3v25.6c0,2.9,0,5-.3,6.2-.2,1.2-.7,2.5-1.7,3.9-.9,1.4-2.2,2.5-3.7,3.3-1.5.9-3.3,1.4-5.4,1.7-2.3.3-4.3.2-6.1-.3-1.7-.5-3.1-1.3-3.9-2.4-.9-1.1-1.4-2.3-1.5-3.6-.2-1.3-.2-4.1-.2-8.5v-22.6l10-1.4v28.7c0,1.7,0,2.7.3,3.2.2.4.5.6,1.1.5.6,0,1-.4,1.2-.9.2-.5.3-1.8.3-3.7v-28.2l10-1.4Z"/>
            <path class="st5" d="M75.4,43.8l16.6-2.4v7.7l-6.6.9v7.3l6.2-.9v7.3l-6.2.9v8.4l7.3-1v7.7l-17.3,2.4v-38.3Z"/>
            <path class="st5" d="M95.5,40.9l16.6-2.4v7.7l-6.6.9v7.3l6.2-.9v7.3l-6.2.9v8.4l7.3-1v7.7l-17.3,2.4v-38.3Z"/>
            <path class="st5" d="M137.8,34.9v38.3l-8.7,1.2-5.2-16.7v17.4l-8.3,1.2v-38.3l8.3-1.2,5.6,16.4v-17.2l8.3-1.2Z"/>
            <path class="st5" d="M162.9,42.9l-9.2,1.3v-2.8c0-1.3-.1-2.1-.4-2.5-.2-.3-.6-.5-1.2-.4-.6,0-1.1.4-1.4.9-.3.5-.5,1.3-.5,2.3s.2,2.2.5,2.8c.3.6,1.3,1.2,2.8,1.9,4.4,2,7.2,3.8,8.4,5.3,1.2,1.5,1.7,4.2,1.7,7.9s-.3,4.8-1,6.2c-.6,1.4-1.9,2.6-3.7,3.8-1.8,1.1-4,1.9-6.4,2.2-2.7.4-4.9.2-6.8-.5-1.9-.7-3.1-1.8-3.7-3.3-.6-1.5-.9-3.6-.9-6.5v-2.5l9.2-1.3v4.7c0,1.4.1,2.3.4,2.7.3.4.7.5,1.4.4.7,0,1.2-.4,1.5-1,.3-.6.5-1.4.5-2.4,0-2.3-.3-3.7-.9-4.3-.6-.6-2.2-1.5-4.7-2.8-2.5-1.3-4.1-2.2-4.9-2.9-.8-.6-1.5-1.6-2-2.8-.5-1.2-.8-2.9-.8-4.9,0-2.9.4-5.1,1.1-6.6.7-1.5,2-2.7,3.6-3.7,1.7-1,3.7-1.7,6.1-2,2.6-.4,4.8-.3,6.6.3,1.8.6,3,1.5,3.6,2.6.6,1.2.9,3.3.9,6.3v1.5Z"/>
          </g>
        </g>
        <g>
          <path class="st5" d="M67.1,100.3l-9.2,1.3v-2.8c0-1.3-.1-2.1-.4-2.5-.2-.3-.6-.5-1.2-.4-.6,0-1.1.4-1.4.9-.3.5-.5,1.3-.5,2.3s.2,2.2.5,2.8c.3.6,1.3,1.2,2.8,1.9,4.4,2,7.2,3.8,8.4,5.3s1.7,4.2,1.7,7.9-.3,4.8-1,6.2c-.6,1.4-1.9,2.6-3.7,3.8-1.8,1.1-4,1.9-6.4,2.2-2.7.4-4.9.2-6.8-.5-1.9-.7-3.1-1.8-3.7-3.3-.6-1.5-.9-3.6-.9-6.5v-2.5l9.2-1.3v4.7c0,1.4.1,2.3.4,2.7.3.4.7.5,1.4.4.7,0,1.2-.4,1.5-1,.3-.6.5-1.4.5-2.4,0-2.3-.3-3.7-.9-4.3-.6-.6-2.2-1.5-4.7-2.8-2.5-1.3-4.1-2.2-4.9-2.9-.8-.6-1.5-1.6-2-2.8-.5-1.2-.8-2.9-.8-4.9,0-2.9.4-5.1,1.1-6.6.7-1.5,2-2.7,3.6-3.7,1.7-1,3.7-1.7,6.1-2,2.6-.4,4.8-.3,6.6.3,1.8.6,3,1.5,3.6,2.6.6,1.2.9,3.3.9,6.3v1.5Z"/>
          <path class="st5" d="M94.3,101.6l-10,1.4v-6.7c0-1.9-.1-3.1-.3-3.6-.2-.4-.7-.6-1.4-.5-.8.1-1.3.5-1.6,1.1s-.3,1.9-.3,3.8v17.8c0,1.9.1,3.1.3,3.6s.7.7,1.5.6c.7-.1,1.2-.5,1.5-1.1.2-.6.3-2,.3-4.1v-4.8l10-1.4v1.5c0,4-.3,6.8-.8,8.5-.6,1.7-1.8,3.4-3.7,4.9-1.9,1.5-4.3,2.5-7.1,2.9-2.9.4-5.3.2-7.2-.6-1.9-.8-3.1-2.1-3.8-3.9-.6-1.8-.9-4.5-.9-8.3v-11.2c0-2.8,0-4.8.3-6.2.2-1.4.8-2.8,1.7-4.2.9-1.4,2.2-2.6,3.9-3.6,1.7-1,3.6-1.6,5.7-1.9,2.9-.4,5.3-.2,7.3.7,1.9.9,3.2,2.1,3.8,3.7.6,1.6.9,4.2.9,7.8v3.6Z"/>
          <path class="st5" d="M107.8,83v38.3l-10,1.4v-38.3l10-1.4Z"/>
          <path class="st5" d="M111.8,82.4l16.6-2.4v7.7l-6.6.9v7.3l6.2-.9v7.3l-6.2.9v8.4l7.3-1v7.7l-17.3,2.4v-38.3Z"/>
          <path class="st5" d="M154.1,76.4v38.3l-8.7,1.2-5.2-16.7v17.4l-8.3,1.2v-38.3l8.3-1.2,5.6,16.4v-17.2l8.3-1.2Z"/>
          <path class="st5" d="M181.4,89.2l-10,1.4v-6.7c0-1.9-.1-3.1-.3-3.6-.2-.5-.7-.6-1.4-.5-.8.1-1.3.5-1.6,1.1-.2.6-.3,1.9-.3,3.8v17.8c0,1.9.1,3.1.3,3.6.2.5.7.7,1.5.6.7-.1,1.2-.5,1.5-1.1.2-.6.3-2,.3-4.1v-4.8l10-1.4v1.5c0,4-.3,6.8-.8,8.5-.6,1.7-1.8,3.4-3.7,4.9-1.9,1.5-4.3,2.5-7.1,2.9-2.9.4-5.3.2-7.2-.6-1.9-.8-3.1-2.1-3.8-3.9-.6-1.8-.9-4.5-.9-8.3v-11.2c0-2.8,0-4.8.3-6.2.2-1.4.8-2.8,1.7-4.2.9-1.4,2.2-2.6,3.9-3.6,1.7-1,3.6-1.6,5.7-1.9,2.9-.4,5.3-.2,7.3.7,1.9.9,3.2,2.1,3.8,3.7.6,1.6.9,4.2.9,7.8v3.6Z"/>
          <path class="st5" d="M184.9,72l16.6-2.4v7.7l-6.6.9v7.3l6.2-.9v7.3l-6.2.9v8.4l7.3-1v7.7l-17.3,2.4v-38.3Z"/>
        </g>
        <g>
          <path class="st5" d="M172,60.7c0-4.7,3-8.3,8.1-9.1,5.2-.7,8.1,2.1,8.1,6.8s-3,8.4-8.1,9.1c-5.1.7-8.1-2.1-8.1-6.8ZM183.2,59.1c0-4.1-.6-7.4-3-7.1-2.4.3-3,3.9-3,7.9s.6,7.5,3,7.1c2.4-.3,3-3.9,3-8Z"/>
          <path class="st5" d="M189,65.6c1.4-.3,2.6-1.2,2.6-3.7v-9.7l-2,.3v-.3c.4-.2.6-.3.9-.5.6-.4,1-1,1.2-2,.5-2.9,1.3-4.9,2.8-6.5,1.4-1.5,3.1-2.4,4.9-2.6,1.9-.3,3.7.5,3.7,2.3s-.6,2-1.8,2.6h-.5c-.6-2.2-1.8-4.1-3.1-3.9-1.4.2-1.6,2-1.6,3.3v5.1l4.8-.9-.5,2-4.4.6v9.6c0,2.7,1.1,3.1,3.5,2.9v.3c-2.6.3-4,.5-5.6.7-1.5.2-3.5.5-5.1.8v-.3Z"/>
        </g>
      </g>
      <g>
        <g>
          <g>
            <path class="st5" d="M45.2,86.3v4.6l-7.5,1.1c-1.8.3-3.1.3-3.8.1-.7-.2-1.2-.5-1.5-1-.3-.5-.4-1.5-.4-2.9-2.3.3-4.2,0-5.8-.9-1.6-.9-2.7-2.2-3.2-3.8-.5-1.7-.8-4.2-.8-7.6v-11.8c0-2.6.2-4.6.5-6,.3-1.4.9-2.8,1.9-4.1,1-1.3,2.2-2.4,3.7-3.3,1.5-.8,3.2-1.4,5-1.6,2.2-.3,4.2-.2,5.9.3,1.7.5,3,1.3,3.9,2.3.9,1,1.4,2.2,1.7,3.4.3,1.2.4,3.1.4,5.5v12.4c0,3.4-.2,5.7-.5,7-.3,1.3-1,2.3-1.9,3.2-.9.9-2.2,1.6-3.7,2.2,0,.8.2,1.4.5,1.5.3.2,1,.2,2.2,0l3.5-.5ZM35.2,59.3c0-1.8,0-2.9-.3-3.4-.2-.5-.6-.7-1.2-.6-.5,0-.9.3-1.2.8-.3.4-.4,1.6-.4,3.6v17.9c0,2.2,0,3.6.3,4.1.2.5.6.7,1.3.6.7,0,1.1-.5,1.3-1.1.2-.6.3-2.1.3-4.3v-17.6Z"/>
            <path class="st5" d="M71.5,44.3v25.6c0,2.9,0,5-.3,6.2-.2,1.2-.7,2.5-1.7,3.9-.9,1.4-2.2,2.5-3.7,3.3-1.5.9-3.3,1.4-5.4,1.7-2.3.3-4.3.2-6.1-.3-1.7-.5-3.1-1.3-3.9-2.4-.9-1.1-1.4-2.3-1.5-3.6-.2-1.3-.2-4.1-.2-8.5v-22.6l10-1.4v28.7c0,1.7,0,2.7.3,3.2.2.4.5.6,1.1.5.6,0,1-.4,1.2-.9.2-.5.3-1.8.3-3.7v-28.2l10-1.4Z"/>
            <path class="st5" d="M75.4,43.8l16.6-2.4v7.7l-6.6.9v7.3l6.2-.9v7.3l-6.2.9v8.4l7.3-1v7.7l-17.3,2.4v-38.3Z"/>
            <path class="st5" d="M95.5,40.9l16.6-2.4v7.7l-6.6.9v7.3l6.2-.9v7.3l-6.2.9v8.4l7.3-1v7.7l-17.3,2.4v-38.3Z"/>
            <path class="st5" d="M137.8,34.9v38.3l-8.7,1.2-5.2-16.7v17.4l-8.3,1.2v-38.3l8.3-1.2,5.6,16.4v-17.2l8.3-1.2Z"/>
            <path class="st5" d="M162.9,42.9l-9.2,1.3v-2.8c0-1.3-.1-2.1-.4-2.5-.2-.3-.6-.5-1.2-.4-.6,0-1.1.4-1.4.9-.3.5-.5,1.3-.5,2.3s.2,2.2.5,2.8c.3.6,1.3,1.2,2.8,1.9,4.4,2,7.2,3.8,8.4,5.3,1.2,1.5,1.7,4.2,1.7,7.9s-.3,4.8-1,6.2c-.6,1.4-1.9,2.6-3.7,3.8-1.8,1.1-4,1.9-6.4,2.2-2.7.4-4.9.2-6.8-.5-1.9-.7-3.1-1.8-3.7-3.3-.6-1.5-.9-3.6-.9-6.5v-2.5l9.2-1.3v4.7c0,1.4.1,2.3.4,2.7.3.4.7.5,1.4.4.7,0,1.2-.4,1.5-1,.3-.6.5-1.4.5-2.4,0-2.3-.3-3.7-.9-4.3-.6-.6-2.2-1.5-4.7-2.8-2.5-1.3-4.1-2.2-4.9-2.9-.8-.6-1.5-1.6-2-2.8-.5-1.2-.8-2.9-.8-4.9,0-2.9.4-5.1,1.1-6.6.7-1.5,2-2.7,3.6-3.7,1.7-1,3.7-1.7,6.1-2,2.6-.4,4.8-.3,6.6.3,1.8.6,3,1.5,3.6,2.6.6,1.2.9,3.3.9,6.3v1.5Z"/>
          </g>
          <g>
            <path class="st5" d="M45.2,86.3v4.6l-7.5,1.1c-1.8.3-3.1.3-3.8.1-.7-.2-1.2-.5-1.5-1-.3-.5-.4-1.5-.4-2.9-2.3.3-4.2,0-5.8-.9-1.6-.9-2.7-2.2-3.2-3.8-.5-1.7-.8-4.2-.8-7.6v-11.8c0-2.6.2-4.6.5-6,.3-1.4.9-2.8,1.9-4.1,1-1.3,2.2-2.4,3.7-3.3,1.5-.8,3.2-1.4,5-1.6,2.2-.3,4.2-.2,5.9.3,1.7.5,3,1.3,3.9,2.3.9,1,1.4,2.2,1.7,3.4.3,1.2.4,3.1.4,5.5v12.4c0,3.4-.2,5.7-.5,7-.3,1.3-1,2.3-1.9,3.2-.9.9-2.2,1.6-3.7,2.2,0,.8.2,1.4.5,1.5.3.2,1,.2,2.2,0l3.5-.5ZM35.2,59.3c0-1.8,0-2.9-.3-3.4-.2-.5-.6-.7-1.2-.6-.5,0-.9.3-1.2.8-.3.4-.4,1.6-.4,3.6v17.9c0,2.2,0,3.6.3,4.1.2.5.6.7,1.3.6.7,0,1.1-.5,1.3-1.1.2-.6.3-2.1.3-4.3v-17.6Z"/>
            <path class="st5" d="M71.5,44.3v25.6c0,2.9,0,5-.3,6.2-.2,1.2-.7,2.5-1.7,3.9-.9,1.4-2.2,2.5-3.7,3.3-1.5.9-3.3,1.4-5.4,1.7-2.3.3-4.3.2-6.1-.3-1.7-.5-3.1-1.3-3.9-2.4-.9-1.1-1.4-2.3-1.5-3.6-.2-1.3-.2-4.1-.2-8.5v-22.6l10-1.4v28.7c0,1.7,0,2.7.3,3.2.2.4.5.6,1.1.5.6,0,1-.4,1.2-.9.2-.5.3-1.8.3-3.7v-28.2l10-1.4Z"/>
            <path class="st5" d="M75.4,43.8l16.6-2.4v7.7l-6.6.9v7.3l6.2-.9v7.3l-6.2.9v8.4l7.3-1v7.7l-17.3,2.4v-38.3Z"/>
            <path class="st5" d="M95.5,40.9l16.6-2.4v7.7l-6.6.9v7.3l6.2-.9v7.3l-6.2.9v8.4l7.3-1v7.7l-17.3,2.4v-38.3Z"/>
            <path class="st5" d="M137.8,34.9v38.3l-8.7,1.2-5.2-16.7v17.4l-8.3,1.2v-38.3l8.3-1.2,5.6,16.4v-17.2l8.3-1.2Z"/>
            <path class="st5" d="M162.9,42.9l-9.2,1.3v-2.8c0-1.3-.1-2.1-.4-2.5-.2-.3-.6-.5-1.2-.4-.6,0-1.1.4-1.4.9-.3.5-.5,1.3-.5,2.3s.2,2.2.5,2.8c.3.6,1.3,1.2,2.8,1.9,4.4,2,7.2,3.8,8.4,5.3,1.2,1.5,1.7,4.2,1.7,7.9s-.3,4.8-1,6.2c-.6,1.4-1.9,2.6-3.7,3.8-1.8,1.1-4,1.9-6.4,2.2-2.7.4-4.9.2-6.8-.5-1.9-.7-3.1-1.8-3.7-3.3-.6-1.5-.9-3.6-.9-6.5v-2.5l9.2-1.3v4.7c0,1.4.1,2.3.4,2.7.3.4.7.5,1.4.4.7,0,1.2-.4,1.5-1,.3-.6.5-1.4.5-2.4,0-2.3-.3-3.7-.9-4.3-.6-.6-2.2-1.5-4.7-2.8-2.5-1.3-4.1-2.2-4.9-2.9-.8-.6-1.5-1.6-2-2.8-.5-1.2-.8-2.9-.8-4.9,0-2.9.4-5.1,1.1-6.6.7-1.5,2-2.7,3.6-3.7,1.7-1,3.7-1.7,6.1-2,2.6-.4,4.8-.3,6.6.3,1.8.6,3,1.5,3.6,2.6.6,1.2.9,3.3.9,6.3v1.5Z"/>
          </g>
          <g>
            <path class="st5" d="M45.2,86.3v4.6l-7.5,1.1c-1.8.3-3.1.3-3.8.1-.7-.2-1.2-.5-1.5-1-.3-.5-.4-1.5-.4-2.9-2.3.3-4.2,0-5.8-.9-1.6-.9-2.7-2.2-3.2-3.8-.5-1.7-.8-4.2-.8-7.6v-11.8c0-2.6.2-4.6.5-6,.3-1.4.9-2.8,1.9-4.1,1-1.3,2.2-2.4,3.7-3.3,1.5-.8,3.2-1.4,5-1.6,2.2-.3,4.2-.2,5.9.3,1.7.5,3,1.3,3.9,2.3.9,1,1.4,2.2,1.7,3.4.3,1.2.4,3.1.4,5.5v12.4c0,3.4-.2,5.7-.5,7-.3,1.3-1,2.3-1.9,3.2-.9.9-2.2,1.6-3.7,2.2,0,.8.2,1.4.5,1.5.3.2,1,.2,2.2,0l3.5-.5ZM35.2,59.3c0-1.8,0-2.9-.3-3.4-.2-.5-.6-.7-1.2-.6-.5,0-.9.3-1.2.8-.3.4-.4,1.6-.4,3.6v17.9c0,2.2,0,3.6.3,4.1.2.5.6.7,1.3.6.7,0,1.1-.5,1.3-1.1.2-.6.3-2.1.3-4.3v-17.6Z"/>
            <path class="st5" d="M71.5,44.3v25.6c0,2.9,0,5-.3,6.2-.2,1.2-.7,2.5-1.7,3.9-.9,1.4-2.2,2.5-3.7,3.3-1.5.9-3.3,1.4-5.4,1.7-2.3.3-4.3.2-6.1-.3-1.7-.5-3.1-1.3-3.9-2.4-.9-1.1-1.4-2.3-1.5-3.6-.2-1.3-.2-4.1-.2-8.5v-22.6l10-1.4v28.7c0,1.7,0,2.7.3,3.2.2.4.5.6,1.1.5.6,0,1-.4,1.2-.9.2-.5.3-1.8.3-3.7v-28.2l10-1.4Z"/>
            <path class="st5" d="M75.4,43.8l16.6-2.4v7.7l-6.6.9v7.3l6.2-.9v7.3l-6.2.9v8.4l7.3-1v7.7l-17.3,2.4v-38.3Z"/>
            <path class="st5" d="M95.5,40.9l16.6-2.4v7.7l-6.6.9v7.3l6.2-.9v7.3l-6.2.9v8.4l7.3-1v7.7l-17.3,2.4v-38.3Z"/>
            <path class="st5" d="M137.8,34.9v38.3l-8.7,1.2-5.2-16.7v17.4l-8.3,1.2v-38.3l8.3-1.2,5.6,16.4v-17.2l8.3-1.2Z"/>
            <path class="st5" d="M162.9,42.9l-9.2,1.3v-2.8c0-1.3-.1-2.1-.4-2.5-.2-.3-.6-.5-1.2-.4-.6,0-1.1.4-1.4.9-.3.5-.5,1.3-.5,2.3s.2,2.2.5,2.8c.3.6,1.3,1.2,2.8,1.9,4.4,2,7.2,3.8,8.4,5.3,1.2,1.5,1.7,4.2,1.7,7.9s-.3,4.8-1,6.2c-.6,1.4-1.9,2.6-3.7,3.8-1.8,1.1-4,1.9-6.4,2.2-2.7.4-4.9.2-6.8-.5-1.9-.7-3.1-1.8-3.7-3.3-.6-1.5-.9-3.6-.9-6.5v-2.5l9.2-1.3v4.7c0,1.4.1,2.3.4,2.7.3.4.7.5,1.4.4.7,0,1.2-.4,1.5-1,.3-.6.5-1.4.5-2.4,0-2.3-.3-3.7-.9-4.3-.6-.6-2.2-1.5-4.7-2.8-2.5-1.3-4.1-2.2-4.9-2.9-.8-.6-1.5-1.6-2-2.8-.5-1.2-.8-2.9-.8-4.9,0-2.9.4-5.1,1.1-6.6.7-1.5,2-2.7,3.6-3.7,1.7-1,3.7-1.7,6.1-2,2.6-.4,4.8-.3,6.6.3,1.8.6,3,1.5,3.6,2.6.6,1.2.9,3.3.9,6.3v1.5Z"/>
          </g>
        </g>
        <g>
          <path class="st5" d="M67.1,100.3l-9.2,1.3v-2.8c0-1.3-.1-2.1-.4-2.5-.2-.3-.6-.5-1.2-.4-.6,0-1.1.4-1.4.9-.3.5-.5,1.3-.5,2.3s.2,2.2.5,2.8c.3.6,1.3,1.2,2.8,1.9,4.4,2,7.2,3.8,8.4,5.3s1.7,4.2,1.7,7.9-.3,4.8-1,6.2c-.6,1.4-1.9,2.6-3.7,3.8-1.8,1.1-4,1.9-6.4,2.2-2.7.4-4.9.2-6.8-.5-1.9-.7-3.1-1.8-3.7-3.3-.6-1.5-.9-3.6-.9-6.5v-2.5l9.2-1.3v4.7c0,1.4.1,2.3.4,2.7.3.4.7.5,1.4.4.7,0,1.2-.4,1.5-1,.3-.6.5-1.4.5-2.4,0-2.3-.3-3.7-.9-4.3-.6-.6-2.2-1.5-4.7-2.8-2.5-1.3-4.1-2.2-4.9-2.9-.8-.6-1.5-1.6-2-2.8-.5-1.2-.8-2.9-.8-4.9,0-2.9.4-5.1,1.1-6.6.7-1.5,2-2.7,3.6-3.7,1.7-1,3.7-1.7,6.1-2,2.6-.4,4.8-.3,6.6.3,1.8.6,3,1.5,3.6,2.6.6,1.2.9,3.3.9,6.3v1.5Z"/>
          <path class="st5" d="M94.3,101.6l-10,1.4v-6.7c0-1.9-.1-3.1-.3-3.6-.2-.4-.7-.6-1.4-.5-.8.1-1.3.5-1.6,1.1s-.3,1.9-.3,3.8v17.8c0,1.9.1,3.1.3,3.6s.7.7,1.5.6c.7-.1,1.2-.5,1.5-1.1.2-.6.3-2,.3-4.1v-4.8l10-1.4v1.5c0,4-.3,6.8-.8,8.5-.6,1.7-1.8,3.4-3.7,4.9-1.9,1.5-4.3,2.5-7.1,2.9-2.9.4-5.3.2-7.2-.6-1.9-.8-3.1-2.1-3.8-3.9-.6-1.8-.9-4.5-.9-8.3v-11.2c0-2.8,0-4.8.3-6.2.2-1.4.8-2.8,1.7-4.2.9-1.4,2.2-2.6,3.9-3.6,1.7-1,3.6-1.6,5.7-1.9,2.9-.4,5.3-.2,7.3.7,1.9.9,3.2,2.1,3.8,3.7.6,1.6.9,4.2.9,7.8v3.6Z"/>
          <path class="st5" d="M107.8,83v38.3l-10,1.4v-38.3l10-1.4Z"/>
          <path class="st5" d="M111.8,82.4l16.6-2.4v7.7l-6.6.9v7.3l6.2-.9v7.3l-6.2.9v8.4l7.3-1v7.7l-17.3,2.4v-38.3Z"/>
          <path class="st5" d="M154.1,76.4v38.3l-8.7,1.2-5.2-16.7v17.4l-8.3,1.2v-38.3l8.3-1.2,5.6,16.4v-17.2l8.3-1.2Z"/>
          <path class="st5" d="M181.4,89.2l-10,1.4v-6.7c0-1.9-.1-3.1-.3-3.6-.2-.5-.7-.6-1.4-.5-.8.1-1.3.5-1.6,1.1-.2.6-.3,1.9-.3,3.8v17.8c0,1.9.1,3.1.3,3.6.2.5.7.7,1.5.6.7-.1,1.2-.5,1.5-1.1.2-.6.3-2,.3-4.1v-4.8l10-1.4v1.5c0,4-.3,6.8-.8,8.5-.6,1.7-1.8,3.4-3.7,4.9-1.9,1.5-4.3,2.5-7.1,2.9-2.9.4-5.3.2-7.2-.6-1.9-.8-3.1-2.1-3.8-3.9-.6-1.8-.9-4.5-.9-8.3v-11.2c0-2.8,0-4.8.3-6.2.2-1.4.8-2.8,1.7-4.2.9-1.4,2.2-2.6,3.9-3.6,1.7-1,3.6-1.6,5.7-1.9,2.9-.4,5.3-.2,7.3.7,1.9.9,3.2,2.1,3.8,3.7.6,1.6.9,4.2.9,7.8v3.6Z"/>
          <path class="st5" d="M184.9,72l16.6-2.4v7.7l-6.6.9v7.3l6.2-.9v7.3l-6.2.9v8.4l7.3-1v7.7l-17.3,2.4v-38.3Z"/>
        </g>
        <g>
          <path class="st5" d="M172,60.7c0-4.7,3-8.3,8.1-9.1,5.2-.7,8.1,2.1,8.1,6.8s-3,8.4-8.1,9.1c-5.1.7-8.1-2.1-8.1-6.8ZM183.2,59.1c0-4.1-.6-7.4-3-7.1-2.4.3-3,3.9-3,7.9s.6,7.5,3,7.1c2.4-.3,3-3.9,3-8Z"/>
          <path class="st5" d="M189,65.6c1.4-.3,2.6-1.2,2.6-3.7v-9.7l-2,.3v-.3c.4-.2.6-.3.9-.5.6-.4,1-1,1.2-2,.5-2.9,1.3-4.9,2.8-6.5,1.4-1.5,3.1-2.4,4.9-2.6,1.9-.3,3.7.5,3.7,2.3s-.6,2-1.8,2.6h-.5c-.6-2.2-1.8-4.1-3.1-3.9-1.4.2-1.6,2-1.6,3.3v5.1l4.8-.9-.5,2-4.4.6v9.6c0,2.7,1.1,3.1,3.5,2.9v.3c-2.6.3-4,.5-5.6.7-1.5.2-3.5.5-5.1.8v-.3Z"/>
        </g>
      </g>
    </g>
  </g>
  <g>
    <polygon class="st0" points="222.1 122.1 5.3 152.8 5.3 36.5 222.1 5.7 222.1 122.1"/>
    <g>
      <g>
        <g>
          <g>
            <path class="st0" d="M46.2,87.3v4.6l-7.5,1.1c-1.8.3-3.1.3-3.8.1-.7-.2-1.2-.5-1.5-1-.3-.5-.4-1.5-.4-2.9-2.3.3-4.2,0-5.8-.9-1.6-.9-2.7-2.2-3.2-3.8-.5-1.7-.8-4.2-.8-7.6v-11.8c0-2.6.2-4.6.5-6,.3-1.4.9-2.8,1.9-4.1,1-1.3,2.2-2.4,3.7-3.3,1.5-.8,3.2-1.4,5-1.6,2.2-.3,4.2-.2,5.9.3,1.7.5,3,1.3,3.9,2.3.9,1,1.4,2.2,1.7,3.4.3,1.2.4,3.1.4,5.5v12.4c0,3.4-.2,5.7-.5,7-.3,1.3-1,2.3-1.9,3.2-.9.9-2.2,1.6-3.7,2.2,0,.8.2,1.4.5,1.5.3.2,1,.2,2.2,0l3.5-.5ZM36.2,60.3c0-1.8,0-2.9-.3-3.4-.2-.5-.6-.7-1.2-.6-.5,0-.9.3-1.2.8-.3.4-.4,1.6-.4,3.6v17.9c0,2.2,0,3.6.3,4.1.2.5.6.7,1.3.6.7,0,1.1-.5,1.3-1.1.2-.6.3-2.1.3-4.3v-17.6Z"/>
            <path class="st0" d="M72.5,45.3v25.6c0,2.9,0,5-.3,6.2-.2,1.2-.7,2.5-1.7,3.9-.9,1.4-2.2,2.5-3.7,3.3-1.5.9-3.3,1.4-5.4,1.7-2.3.3-4.3.2-6.1-.3-1.7-.5-3.1-1.3-3.9-2.4-.9-1.1-1.4-2.3-1.5-3.6-.2-1.3-.2-4.1-.2-8.5v-22.6l10-1.4v28.7c0,1.7,0,2.7.3,3.2.2.4.5.6,1.1.5.6,0,1-.4,1.2-.9.2-.5.3-1.8.3-3.7v-28.2l10-1.4Z"/>
            <path class="st0" d="M76.4,44.8l16.6-2.4v7.7l-6.6.9v7.3l6.2-.9v7.3l-6.2.9v8.4l7.3-1v7.7l-17.3,2.4v-38.3Z"/>
            <path class="st0" d="M96.5,41.9l16.6-2.4v7.7l-6.6.9v7.3l6.2-.9v7.3l-6.2.9v8.4l7.3-1v7.7l-17.3,2.4v-38.3Z"/>
            <path class="st0" d="M138.8,35.9v38.3l-8.7,1.2-5.2-16.7v17.4l-8.3,1.2v-38.3l8.3-1.2,5.6,16.4v-17.2l8.3-1.2Z"/>
            <path class="st0" d="M163.9,43.9l-9.2,1.3v-2.8c0-1.3-.1-2.1-.4-2.5-.2-.3-.6-.5-1.2-.4-.6,0-1.1.4-1.4.9-.3.5-.5,1.3-.5,2.3s.2,2.2.5,2.8c.3.6,1.3,1.2,2.8,1.9,4.4,2,7.2,3.8,8.4,5.3,1.2,1.5,1.7,4.2,1.7,7.9s-.3,4.8-1,6.2c-.6,1.4-1.9,2.6-3.7,3.8-1.8,1.1-4,1.9-6.4,2.2-2.7.4-4.9.2-6.8-.5-1.9-.7-3.1-1.8-3.7-3.3-.6-1.5-.9-3.6-.9-6.5v-2.5l9.2-1.3v4.7c0,1.4.1,2.3.4,2.7.3.4.7.5,1.4.4.7,0,1.2-.4,1.5-1,.3-.6.5-1.4.5-2.4,0-2.3-.3-3.7-.9-4.3-.6-.6-2.2-1.5-4.7-2.8-2.5-1.3-4.1-2.2-4.9-2.9-.8-.6-1.5-1.6-2-2.8-.5-1.2-.8-2.9-.8-4.9,0-2.9.4-5.1,1.1-6.6.7-1.5,2-2.7,3.6-3.7,1.7-1,3.7-1.7,6.1-2,2.6-.4,4.8-.3,6.6.3,1.8.6,3,1.5,3.6,2.6.6,1.2.9,3.3.9,6.3v1.5Z"/>
          </g>
          <g>
            <path class="st0" d="M46.2,87.3v4.6l-7.5,1.1c-1.8.3-3.1.3-3.8.1-.7-.2-1.2-.5-1.5-1-.3-.5-.4-1.5-.4-2.9-2.3.3-4.2,0-5.8-.9-1.6-.9-2.7-2.2-3.2-3.8-.5-1.7-.8-4.2-.8-7.6v-11.8c0-2.6.2-4.6.5-6,.3-1.4.9-2.8,1.9-4.1,1-1.3,2.2-2.4,3.7-3.3,1.5-.8,3.2-1.4,5-1.6,2.2-.3,4.2-.2,5.9.3,1.7.5,3,1.3,3.9,2.3.9,1,1.4,2.2,1.7,3.4.3,1.2.4,3.1.4,5.5v12.4c0,3.4-.2,5.7-.5,7-.3,1.3-1,2.3-1.9,3.2-.9.9-2.2,1.6-3.7,2.2,0,.8.2,1.4.5,1.5.3.2,1,.2,2.2,0l3.5-.5ZM36.2,60.3c0-1.8,0-2.9-.3-3.4-.2-.5-.6-.7-1.2-.6-.5,0-.9.3-1.2.8-.3.4-.4,1.6-.4,3.6v17.9c0,2.2,0,3.6.3,4.1.2.5.6.7,1.3.6.7,0,1.1-.5,1.3-1.1.2-.6.3-2.1.3-4.3v-17.6Z"/>
            <path class="st0" d="M72.5,45.3v25.6c0,2.9,0,5-.3,6.2-.2,1.2-.7,2.5-1.7,3.9-.9,1.4-2.2,2.5-3.7,3.3-1.5.9-3.3,1.4-5.4,1.7-2.3.3-4.3.2-6.1-.3-1.7-.5-3.1-1.3-3.9-2.4-.9-1.1-1.4-2.3-1.5-3.6-.2-1.3-.2-4.1-.2-8.5v-22.6l10-1.4v28.7c0,1.7,0,2.7.3,3.2.2.4.5.6,1.1.5.6,0,1-.4,1.2-.9.2-.5.3-1.8.3-3.7v-28.2l10-1.4Z"/>
            <path class="st0" d="M76.4,44.8l16.6-2.4v7.7l-6.6.9v7.3l6.2-.9v7.3l-6.2.9v8.4l7.3-1v7.7l-17.3,2.4v-38.3Z"/>
            <path class="st0" d="M96.5,41.9l16.6-2.4v7.7l-6.6.9v7.3l6.2-.9v7.3l-6.2.9v8.4l7.3-1v7.7l-17.3,2.4v-38.3Z"/>
            <path class="st0" d="M138.8,35.9v38.3l-8.7,1.2-5.2-16.7v17.4l-8.3,1.2v-38.3l8.3-1.2,5.6,16.4v-17.2l8.3-1.2Z"/>
            <path class="st0" d="M163.9,43.9l-9.2,1.3v-2.8c0-1.3-.1-2.1-.4-2.5-.2-.3-.6-.5-1.2-.4-.6,0-1.1.4-1.4.9-.3.5-.5,1.3-.5,2.3s.2,2.2.5,2.8c.3.6,1.3,1.2,2.8,1.9,4.4,2,7.2,3.8,8.4,5.3,1.2,1.5,1.7,4.2,1.7,7.9s-.3,4.8-1,6.2c-.6,1.4-1.9,2.6-3.7,3.8-1.8,1.1-4,1.9-6.4,2.2-2.7.4-4.9.2-6.8-.5-1.9-.7-3.1-1.8-3.7-3.3-.6-1.5-.9-3.6-.9-6.5v-2.5l9.2-1.3v4.7c0,1.4.1,2.3.4,2.7.3.4.7.5,1.4.4.7,0,1.2-.4,1.5-1,.3-.6.5-1.4.5-2.4,0-2.3-.3-3.7-.9-4.3-.6-.6-2.2-1.5-4.7-2.8-2.5-1.3-4.1-2.2-4.9-2.9-.8-.6-1.5-1.6-2-2.8-.5-1.2-.8-2.9-.8-4.9,0-2.9.4-5.1,1.1-6.6.7-1.5,2-2.7,3.6-3.7,1.7-1,3.7-1.7,6.1-2,2.6-.4,4.8-.3,6.6.3,1.8.6,3,1.5,3.6,2.6.6,1.2.9,3.3.9,6.3v1.5Z"/>
          </g>
          <g>
            <path class="st0" d="M46.2,87.3v4.6l-7.5,1.1c-1.8.3-3.1.3-3.8.1-.7-.2-1.2-.5-1.5-1-.3-.5-.4-1.5-.4-2.9-2.3.3-4.2,0-5.8-.9-1.6-.9-2.7-2.2-3.2-3.8-.5-1.7-.8-4.2-.8-7.6v-11.8c0-2.6.2-4.6.5-6,.3-1.4.9-2.8,1.9-4.1,1-1.3,2.2-2.4,3.7-3.3,1.5-.8,3.2-1.4,5-1.6,2.2-.3,4.2-.2,5.9.3,1.7.5,3,1.3,3.9,2.3.9,1,1.4,2.2,1.7,3.4.3,1.2.4,3.1.4,5.5v12.4c0,3.4-.2,5.7-.5,7-.3,1.3-1,2.3-1.9,3.2-.9.9-2.2,1.6-3.7,2.2,0,.8.2,1.4.5,1.5.3.2,1,.2,2.2,0l3.5-.5ZM36.2,60.3c0-1.8,0-2.9-.3-3.4-.2-.5-.6-.7-1.2-.6-.5,0-.9.3-1.2.8-.3.4-.4,1.6-.4,3.6v17.9c0,2.2,0,3.6.3,4.1.2.5.6.7,1.3.6.7,0,1.1-.5,1.3-1.1.2-.6.3-2.1.3-4.3v-17.6Z"/>
            <path class="st0" d="M72.5,45.3v25.6c0,2.9,0,5-.3,6.2-.2,1.2-.7,2.5-1.7,3.9-.9,1.4-2.2,2.5-3.7,3.3-1.5.9-3.3,1.4-5.4,1.7-2.3.3-4.3.2-6.1-.3-1.7-.5-3.1-1.3-3.9-2.4-.9-1.1-1.4-2.3-1.5-3.6-.2-1.3-.2-4.1-.2-8.5v-22.6l10-1.4v28.7c0,1.7,0,2.7.3,3.2.2.4.5.6,1.1.5.6,0,1-.4,1.2-.9.2-.5.3-1.8.3-3.7v-28.2l10-1.4Z"/>
            <path class="st0" d="M76.4,44.8l16.6-2.4v7.7l-6.6.9v7.3l6.2-.9v7.3l-6.2.9v8.4l7.3-1v7.7l-17.3,2.4v-38.3Z"/>
            <path class="st0" d="M96.5,41.9l16.6-2.4v7.7l-6.6.9v7.3l6.2-.9v7.3l-6.2.9v8.4l7.3-1v7.7l-17.3,2.4v-38.3Z"/>
            <path class="st0" d="M138.8,35.9v38.3l-8.7,1.2-5.2-16.7v17.4l-8.3,1.2v-38.3l8.3-1.2,5.6,16.4v-17.2l8.3-1.2Z"/>
            <path class="st0" d="M163.9,43.9l-9.2,1.3v-2.8c0-1.3-.1-2.1-.4-2.5-.2-.3-.6-.5-1.2-.4-.6,0-1.1.4-1.4.9-.3.5-.5,1.3-.5,2.3s.2,2.2.5,2.8c.3.6,1.3,1.2,2.8,1.9,4.4,2,7.2,3.8,8.4,5.3,1.2,1.5,1.7,4.2,1.7,7.9s-.3,4.8-1,6.2c-.6,1.4-1.9,2.6-3.7,3.8-1.8,1.1-4,1.9-6.4,2.2-2.7.4-4.9.2-6.8-.5-1.9-.7-3.1-1.8-3.7-3.3-.6-1.5-.9-3.6-.9-6.5v-2.5l9.2-1.3v4.7c0,1.4.1,2.3.4,2.7.3.4.7.5,1.4.4.7,0,1.2-.4,1.5-1,.3-.6.5-1.4.5-2.4,0-2.3-.3-3.7-.9-4.3-.6-.6-2.2-1.5-4.7-2.8-2.5-1.3-4.1-2.2-4.9-2.9-.8-.6-1.5-1.6-2-2.8-.5-1.2-.8-2.9-.8-4.9,0-2.9.4-5.1,1.1-6.6.7-1.5,2-2.7,3.6-3.7,1.7-1,3.7-1.7,6.1-2,2.6-.4,4.8-.3,6.6.3,1.8.6,3,1.5,3.6,2.6.6,1.2.9,3.3.9,6.3v1.5Z"/>
          </g>
        </g>
        <g>
          <path class="st0" d="M68.1,101.3l-9.2,1.3v-2.8c0-1.3-.1-2.1-.4-2.5-.2-.3-.6-.5-1.2-.4-.6,0-1.1.4-1.4.9-.3.5-.5,1.3-.5,2.3s.2,2.2.5,2.8c.3.6,1.3,1.2,2.8,1.9,4.4,2,7.2,3.8,8.4,5.3s1.7,4.2,1.7,7.9-.3,4.8-1,6.2c-.6,1.4-1.9,2.6-3.7,3.8-1.8,1.1-4,1.9-6.4,2.2-2.7.4-4.9.2-6.8-.5-1.9-.7-3.1-1.8-3.7-3.3-.6-1.5-.9-3.6-.9-6.5v-2.5l9.2-1.3v4.7c0,1.4.1,2.3.4,2.7.3.4.7.5,1.4.4.7,0,1.2-.4,1.5-1,.3-.6.5-1.4.5-2.4,0-2.3-.3-3.7-.9-4.3-.6-.6-2.2-1.5-4.7-2.8-2.5-1.3-4.1-2.2-4.9-2.9-.8-.6-1.5-1.6-2-2.8-.5-1.2-.8-2.9-.8-4.9,0-2.9.4-5.1,1.1-6.6.7-1.5,2-2.7,3.6-3.7,1.7-1,3.7-1.7,6.1-2,2.6-.4,4.8-.3,6.6.3,1.8.6,3,1.5,3.6,2.6.6,1.2.9,3.3.9,6.3v1.5Z"/>
          <path class="st0" d="M95.3,102.6l-10,1.4v-6.7c0-1.9-.1-3.1-.3-3.6-.2-.4-.7-.6-1.4-.5-.8.1-1.3.5-1.6,1.1s-.3,1.9-.3,3.8v17.8c0,1.9.1,3.1.3,3.6s.7.7,1.5.6c.7-.1,1.2-.5,1.5-1.1.2-.6.3-2,.3-4.1v-4.8l10-1.4v1.5c0,4-.3,6.8-.8,8.5-.6,1.7-1.8,3.4-3.7,4.9-1.9,1.5-4.3,2.5-7.1,2.9-2.9.4-5.3.2-7.2-.6-1.9-.8-3.1-2.1-3.8-3.9-.6-1.8-.9-4.5-.9-8.3v-11.2c0-2.8,0-4.8.3-6.2.2-1.4.8-2.8,1.7-4.2.9-1.4,2.2-2.6,3.9-3.6,1.7-1,3.6-1.6,5.7-1.9,2.9-.4,5.3-.2,7.3.7,1.9.9,3.2,2.1,3.8,3.7.6,1.6.9,4.2.9,7.8v3.6Z"/>
          <path class="st0" d="M108.8,84v38.3l-10,1.4v-38.3l10-1.4Z"/>
          <path class="st0" d="M112.8,83.4l16.6-2.4v7.7l-6.6.9v7.3l6.2-.9v7.3l-6.2.9v8.4l7.3-1v7.7l-17.3,2.4v-38.3Z"/>
          <path class="st0" d="M155.1,77.4v38.3l-8.7,1.2-5.2-16.7v17.4l-8.3,1.2v-38.3l8.3-1.2,5.6,16.4v-17.2l8.3-1.2Z"/>
          <path class="st0" d="M182.4,90.2l-10,1.4v-6.7c0-1.9-.1-3.1-.3-3.6-.2-.5-.7-.6-1.4-.5-.8.1-1.3.5-1.6,1.1-.2.6-.3,1.9-.3,3.8v17.8c0,1.9.1,3.1.3,3.6.2.5.7.7,1.5.6.7-.1,1.2-.5,1.5-1.1.2-.6.3-2,.3-4.1v-4.8l10-1.4v1.5c0,4-.3,6.8-.8,8.5-.6,1.7-1.8,3.4-3.7,4.9-1.9,1.5-4.3,2.5-7.1,2.9-2.9.4-5.3.2-7.2-.6-1.9-.8-3.1-2.1-3.8-3.9-.6-1.8-.9-4.5-.9-8.3v-11.2c0-2.8,0-4.8.3-6.2.2-1.4.8-2.8,1.7-4.2.9-1.4,2.2-2.6,3.9-3.6,1.7-1,3.6-1.6,5.7-1.9,2.9-.4,5.3-.2,7.3.7,1.9.9,3.2,2.1,3.8,3.7.6,1.6.9,4.2.9,7.8v3.6Z"/>
          <path class="st0" d="M185.9,73l16.6-2.4v7.7l-6.6.9v7.3l6.2-.9v7.3l-6.2.9v8.4l7.3-1v7.7l-17.3,2.4v-38.3Z"/>
        </g>
        <g>
          <path class="st0" d="M173,61.7c0-4.7,3-8.3,8.1-9.1,5.2-.7,8.1,2.1,8.1,6.8s-3,8.4-8.1,9.1c-5.1.7-8.1-2.1-8.1-6.8ZM184.2,60.1c0-4.1-.6-7.4-3-7.1-2.4.3-3,3.9-3,7.9s.6,7.5,3,7.1c2.4-.3,3-3.9,3-8Z"/>
          <path class="st0" d="M190,66.6c1.4-.3,2.6-1.2,2.6-3.7v-9.7l-2,.3v-.3c.4-.2.6-.3.9-.5.6-.4,1-1,1.2-2,.5-2.9,1.3-4.9,2.8-6.5,1.4-1.5,3.1-2.4,4.9-2.6,1.9-.3,3.7.5,3.7,2.3s-.6,2-1.8,2.6h-.5c-.6-2.2-1.8-4.1-3.1-3.9-1.4.2-1.6,2-1.6,3.3v5.1l4.8-.9-.5,2-4.4.6v9.6c0,2.7,1.1,3.1,3.5,2.9v.3c-2.6.3-4,.5-5.6.7-1.5.2-3.5.5-5.1.8v-.3Z"/>
        </g>
      </g>
      <g>
        <g>
          <g>
            <path class="st0" d="M44.2,85.3v4.6l-7.5,1.1c-1.8.3-3.1.3-3.8.1-.7-.2-1.2-.5-1.5-1-.3-.5-.4-1.5-.4-2.9-2.3.3-4.2,0-5.8-.9-1.6-.9-2.7-2.2-3.2-3.8-.5-1.7-.8-4.2-.8-7.6v-11.8c0-2.6.2-4.6.5-6,.3-1.4.9-2.8,1.9-4.1,1-1.3,2.2-2.4,3.7-3.3,1.5-.8,3.2-1.4,5-1.6,2.2-.3,4.2-.2,5.9.3,1.7.5,3,1.3,3.9,2.3.9,1,1.4,2.2,1.7,3.4.3,1.2.4,3.1.4,5.5v12.4c0,3.4-.2,5.7-.5,7-.3,1.3-1,2.3-1.9,3.2-.9.9-2.2,1.6-3.7,2.2,0,.8.2,1.4.5,1.5.3.2,1,.2,2.2,0l3.5-.5ZM34.2,58.3c0-1.8,0-2.9-.3-3.4-.2-.5-.6-.7-1.2-.6-.5,0-.9.3-1.2.8-.3.4-.4,1.6-.4,3.6v17.9c0,2.2,0,3.6.3,4.1.2.5.6.7,1.3.6.7,0,1.1-.5,1.3-1.1.2-.6.3-2.1.3-4.3v-17.6Z"/>
            <path class="st0" d="M70.5,43.3v25.6c0,2.9,0,5-.3,6.2-.2,1.2-.7,2.5-1.7,3.9-.9,1.4-2.2,2.5-3.7,3.3-1.5.9-3.3,1.4-5.4,1.7-2.3.3-4.3.2-6.1-.3-1.7-.5-3.1-1.3-3.9-2.4-.9-1.1-1.4-2.3-1.5-3.6-.2-1.3-.2-4.1-.2-8.5v-22.6l10-1.4v28.7c0,1.7,0,2.7.3,3.2.2.4.5.6,1.1.5.6,0,1-.4,1.2-.9.2-.5.3-1.8.3-3.7v-28.2l10-1.4Z"/>
            <path class="st0" d="M74.4,42.8l16.6-2.4v7.7l-6.6.9v7.3l6.2-.9v7.3l-6.2.9v8.4l7.3-1v7.7l-17.3,2.4v-38.3Z"/>
            <path class="st0" d="M94.5,39.9l16.6-2.4v7.7l-6.6.9v7.3l6.2-.9v7.3l-6.2.9v8.4l7.3-1v7.7l-17.3,2.4v-38.3Z"/>
            <path class="st0" d="M136.8,33.9v38.3l-8.7,1.2-5.2-16.7v17.4l-8.3,1.2v-38.3l8.3-1.2,5.6,16.4v-17.2l8.3-1.2Z"/>
            <path class="st0" d="M161.9,41.9l-9.2,1.3v-2.8c0-1.3-.1-2.1-.4-2.5-.2-.3-.6-.5-1.2-.4-.6,0-1.1.4-1.4.9-.3.5-.5,1.3-.5,2.3s.2,2.2.5,2.8c.3.6,1.3,1.2,2.8,1.9,4.4,2,7.2,3.8,8.4,5.3,1.2,1.5,1.7,4.2,1.7,7.9s-.3,4.8-1,6.2c-.6,1.4-1.9,2.6-3.7,3.8-1.8,1.1-4,1.9-6.4,2.2-2.7.4-4.9.2-6.8-.5-1.9-.7-3.1-1.8-3.7-3.3-.6-1.5-.9-3.6-.9-6.5v-2.5l9.2-1.3v4.7c0,1.4.1,2.3.4,2.7.3.4.7.5,1.4.4.7,0,1.2-.4,1.5-1,.3-.6.5-1.4.5-2.4,0-2.3-.3-3.7-.9-4.3-.6-.6-2.2-1.5-4.7-2.8-2.5-1.3-4.1-2.2-4.9-2.9-.8-.6-1.5-1.6-2-2.8-.5-1.2-.8-2.9-.8-4.9,0-2.9.4-5.1,1.1-6.6.7-1.5,2-2.7,3.6-3.7,1.7-1,3.7-1.7,6.1-2,2.6-.4,4.8-.3,6.6.3,1.8.6,3,1.5,3.6,2.6.6,1.2.9,3.3.9,6.3v1.5Z"/>
          </g>
          <g>
            <path class="st0" d="M44.2,85.3v4.6l-7.5,1.1c-1.8.3-3.1.3-3.8.1-.7-.2-1.2-.5-1.5-1-.3-.5-.4-1.5-.4-2.9-2.3.3-4.2,0-5.8-.9-1.6-.9-2.7-2.2-3.2-3.8-.5-1.7-.8-4.2-.8-7.6v-11.8c0-2.6.2-4.6.5-6,.3-1.4.9-2.8,1.9-4.1,1-1.3,2.2-2.4,3.7-3.3,1.5-.8,3.2-1.4,5-1.6,2.2-.3,4.2-.2,5.9.3,1.7.5,3,1.3,3.9,2.3.9,1,1.4,2.2,1.7,3.4.3,1.2.4,3.1.4,5.5v12.4c0,3.4-.2,5.7-.5,7-.3,1.3-1,2.3-1.9,3.2-.9.9-2.2,1.6-3.7,2.2,0,.8.2,1.4.5,1.5.3.2,1,.2,2.2,0l3.5-.5ZM34.2,58.3c0-1.8,0-2.9-.3-3.4-.2-.5-.6-.7-1.2-.6-.5,0-.9.3-1.2.8-.3.4-.4,1.6-.4,3.6v17.9c0,2.2,0,3.6.3,4.1.2.5.6.7,1.3.6.7,0,1.1-.5,1.3-1.1.2-.6.3-2.1.3-4.3v-17.6Z"/>
            <path class="st0" d="M70.5,43.3v25.6c0,2.9,0,5-.3,6.2-.2,1.2-.7,2.5-1.7,3.9-.9,1.4-2.2,2.5-3.7,3.3-1.5.9-3.3,1.4-5.4,1.7-2.3.3-4.3.2-6.1-.3-1.7-.5-3.1-1.3-3.9-2.4-.9-1.1-1.4-2.3-1.5-3.6-.2-1.3-.2-4.1-.2-8.5v-22.6l10-1.4v28.7c0,1.7,0,2.7.3,3.2.2.4.5.6,1.1.5.6,0,1-.4,1.2-.9.2-.5.3-1.8.3-3.7v-28.2l10-1.4Z"/>
            <path class="st0" d="M74.4,42.8l16.6-2.4v7.7l-6.6.9v7.3l6.2-.9v7.3l-6.2.9v8.4l7.3-1v7.7l-17.3,2.4v-38.3Z"/>
            <path class="st0" d="M94.5,39.9l16.6-2.4v7.7l-6.6.9v7.3l6.2-.9v7.3l-6.2.9v8.4l7.3-1v7.7l-17.3,2.4v-38.3Z"/>
            <path class="st0" d="M136.8,33.9v38.3l-8.7,1.2-5.2-16.7v17.4l-8.3,1.2v-38.3l8.3-1.2,5.6,16.4v-17.2l8.3-1.2Z"/>
            <path class="st0" d="M161.9,41.9l-9.2,1.3v-2.8c0-1.3-.1-2.1-.4-2.5-.2-.3-.6-.5-1.2-.4-.6,0-1.1.4-1.4.9-.3.5-.5,1.3-.5,2.3s.2,2.2.5,2.8c.3.6,1.3,1.2,2.8,1.9,4.4,2,7.2,3.8,8.4,5.3,1.2,1.5,1.7,4.2,1.7,7.9s-.3,4.8-1,6.2c-.6,1.4-1.9,2.6-3.7,3.8-1.8,1.1-4,1.9-6.4,2.2-2.7.4-4.9.2-6.8-.5-1.9-.7-3.1-1.8-3.7-3.3-.6-1.5-.9-3.6-.9-6.5v-2.5l9.2-1.3v4.7c0,1.4.1,2.3.4,2.7.3.4.7.5,1.4.4.7,0,1.2-.4,1.5-1,.3-.6.5-1.4.5-2.4,0-2.3-.3-3.7-.9-4.3-.6-.6-2.2-1.5-4.7-2.8-2.5-1.3-4.1-2.2-4.9-2.9-.8-.6-1.5-1.6-2-2.8-.5-1.2-.8-2.9-.8-4.9,0-2.9.4-5.1,1.1-6.6.7-1.5,2-2.7,3.6-3.7,1.7-1,3.7-1.7,6.1-2,2.6-.4,4.8-.3,6.6.3,1.8.6,3,1.5,3.6,2.6.6,1.2.9,3.3.9,6.3v1.5Z"/>
          </g>
          <g>
            <path class="st0" d="M44.2,85.3v4.6l-7.5,1.1c-1.8.3-3.1.3-3.8.1-.7-.2-1.2-.5-1.5-1-.3-.5-.4-1.5-.4-2.9-2.3.3-4.2,0-5.8-.9-1.6-.9-2.7-2.2-3.2-3.8-.5-1.7-.8-4.2-.8-7.6v-11.8c0-2.6.2-4.6.5-6,.3-1.4.9-2.8,1.9-4.1,1-1.3,2.2-2.4,3.7-3.3,1.5-.8,3.2-1.4,5-1.6,2.2-.3,4.2-.2,5.9.3,1.7.5,3,1.3,3.9,2.3.9,1,1.4,2.2,1.7,3.4.3,1.2.4,3.1.4,5.5v12.4c0,3.4-.2,5.7-.5,7-.3,1.3-1,2.3-1.9,3.2-.9.9-2.2,1.6-3.7,2.2,0,.8.2,1.4.5,1.5.3.2,1,.2,2.2,0l3.5-.5ZM34.2,58.3c0-1.8,0-2.9-.3-3.4-.2-.5-.6-.7-1.2-.6-.5,0-.9.3-1.2.8-.3.4-.4,1.6-.4,3.6v17.9c0,2.2,0,3.6.3,4.1.2.5.6.7,1.3.6.7,0,1.1-.5,1.3-1.1.2-.6.3-2.1.3-4.3v-17.6Z"/>
            <path class="st0" d="M70.5,43.3v25.6c0,2.9,0,5-.3,6.2-.2,1.2-.7,2.5-1.7,3.9-.9,1.4-2.2,2.5-3.7,3.3-1.5.9-3.3,1.4-5.4,1.7-2.3.3-4.3.2-6.1-.3-1.7-.5-3.1-1.3-3.9-2.4-.9-1.1-1.4-2.3-1.5-3.6-.2-1.3-.2-4.1-.2-8.5v-22.6l10-1.4v28.7c0,1.7,0,2.7.3,3.2.2.4.5.6,1.1.5.6,0,1-.4,1.2-.9.2-.5.3-1.8.3-3.7v-28.2l10-1.4Z"/>
            <path class="st0" d="M74.4,42.8l16.6-2.4v7.7l-6.6.9v7.3l6.2-.9v7.3l-6.2.9v8.4l7.3-1v7.7l-17.3,2.4v-38.3Z"/>
            <path class="st0" d="M94.5,39.9l16.6-2.4v7.7l-6.6.9v7.3l6.2-.9v7.3l-6.2.9v8.4l7.3-1v7.7l-17.3,2.4v-38.3Z"/>
            <path class="st0" d="M136.8,33.9v38.3l-8.7,1.2-5.2-16.7v17.4l-8.3,1.2v-38.3l8.3-1.2,5.6,16.4v-17.2l8.3-1.2Z"/>
            <path class="st0" d="M161.9,41.9l-9.2,1.3v-2.8c0-1.3-.1-2.1-.4-2.5-.2-.3-.6-.5-1.2-.4-.6,0-1.1.4-1.4.9-.3.5-.5,1.3-.5,2.3s.2,2.2.5,2.8c.3.6,1.3,1.2,2.8,1.9,4.4,2,7.2,3.8,8.4,5.3,1.2,1.5,1.7,4.2,1.7,7.9s-.3,4.8-1,6.2c-.6,1.4-1.9,2.6-3.7,3.8-1.8,1.1-4,1.9-6.4,2.2-2.7.4-4.9.2-6.8-.5-1.9-.7-3.1-1.8-3.7-3.3-.6-1.5-.9-3.6-.9-6.5v-2.5l9.2-1.3v4.7c0,1.4.1,2.3.4,2.7.3.4.7.5,1.4.4.7,0,1.2-.4,1.5-1,.3-.6.5-1.4.5-2.4,0-2.3-.3-3.7-.9-4.3-.6-.6-2.2-1.5-4.7-2.8-2.5-1.3-4.1-2.2-4.9-2.9-.8-.6-1.5-1.6-2-2.8-.5-1.2-.8-2.9-.8-4.9,0-2.9.4-5.1,1.1-6.6.7-1.5,2-2.7,3.6-3.7,1.7-1,3.7-1.7,6.1-2,2.6-.4,4.8-.3,6.6.3,1.8.6,3,1.5,3.6,2.6.6,1.2.9,3.3.9,6.3v1.5Z"/>
          </g>
        </g>
        <g>
          <path class="st0" d="M66.1,99.3l-9.2,1.3v-2.8c0-1.3-.1-2.1-.4-2.5-.2-.3-.6-.5-1.2-.4-.6,0-1.1.4-1.4.9-.3.5-.5,1.3-.5,2.3s.2,2.2.5,2.8c.3.6,1.3,1.2,2.8,1.9,4.4,2,7.2,3.8,8.4,5.3s1.7,4.2,1.7,7.9-.3,4.8-1,6.2c-.6,1.4-1.9,2.6-3.7,3.8-1.8,1.1-4,1.9-6.4,2.2-2.7.4-4.9.2-6.8-.5-1.9-.7-3.1-1.8-3.7-3.3-.6-1.5-.9-3.6-.9-6.5v-2.5l9.2-1.3v4.7c0,1.4.1,2.3.4,2.7.3.4.7.5,1.4.4.7,0,1.2-.4,1.5-1,.3-.6.5-1.4.5-2.4,0-2.3-.3-3.7-.9-4.3-.6-.6-2.2-1.5-4.7-2.8-2.5-1.3-4.1-2.2-4.9-2.9-.8-.6-1.5-1.6-2-2.8-.5-1.2-.8-2.9-.8-4.9,0-2.9.4-5.1,1.1-6.6.7-1.5,2-2.7,3.6-3.7,1.7-1,3.7-1.7,6.1-2,2.6-.4,4.8-.3,6.6.3,1.8.6,3,1.5,3.6,2.6.6,1.2.9,3.3.9,6.3v1.5Z"/>
          <path class="st0" d="M93.3,100.6l-10,1.4v-6.7c0-1.9-.1-3.1-.3-3.6-.2-.4-.7-.6-1.4-.5-.8.1-1.3.5-1.6,1.1s-.3,1.9-.3,3.8v17.8c0,1.9.1,3.1.3,3.6s.7.7,1.5.6c.7-.1,1.2-.5,1.5-1.1.2-.6.3-2,.3-4.1v-4.8l10-1.4v1.5c0,4-.3,6.8-.8,8.5-.6,1.7-1.8,3.4-3.7,4.9-1.9,1.5-4.3,2.5-7.1,2.9-2.9.4-5.3.2-7.2-.6-1.9-.8-3.1-2.1-3.8-3.9-.6-1.8-.9-4.5-.9-8.3v-11.2c0-2.8,0-4.8.3-6.2.2-1.4.8-2.8,1.7-4.2.9-1.4,2.2-2.6,3.9-3.6,1.7-1,3.6-1.6,5.7-1.9,2.9-.4,5.3-.2,7.3.7,1.9.9,3.2,2.1,3.8,3.7.6,1.6.9,4.2.9,7.8v3.6Z"/>
          <path class="st0" d="M106.8,82v38.3l-10,1.4v-38.3l10-1.4Z"/>
          <path class="st0" d="M110.8,81.4l16.6-2.4v7.7l-6.6.9v7.3l6.2-.9v7.3l-6.2.9v8.4l7.3-1v7.7l-17.3,2.4v-38.3Z"/>
          <path class="st0" d="M153.1,75.4v38.3l-8.7,1.2-5.2-16.7v17.4l-8.3,1.2v-38.3l8.3-1.2,5.6,16.4v-17.2l8.3-1.2Z"/>
          <path class="st0" d="M180.4,88.2l-10,1.4v-6.7c0-1.9-.1-3.1-.3-3.6-.2-.5-.7-.6-1.4-.5-.8.1-1.3.5-1.6,1.1-.2.6-.3,1.9-.3,3.8v17.8c0,1.9.1,3.1.3,3.6.2.5.7.7,1.5.6.7-.1,1.2-.5,1.5-1.1.2-.6.3-2,.3-4.1v-4.8l10-1.4v1.5c0,4-.3,6.8-.8,8.5-.6,1.7-1.8,3.4-3.7,4.9-1.9,1.5-4.3,2.5-7.1,2.9-2.9.4-5.3.2-7.2-.6-1.9-.8-3.1-2.1-3.8-3.9-.6-1.8-.9-4.5-.9-8.3v-11.2c0-2.8,0-4.8.3-6.2.2-1.4.8-2.8,1.7-4.2.9-1.4,2.2-2.6,3.9-3.6,1.7-1,3.6-1.6,5.7-1.9,2.9-.4,5.3-.2,7.3.7,1.9.9,3.2,2.1,3.8,3.7.6,1.6.9,4.2.9,7.8v3.6Z"/>
          <path class="st0" d="M183.9,71l16.6-2.4v7.7l-6.6.9v7.3l6.2-.9v7.3l-6.2.9v8.4l7.3-1v7.7l-17.3,2.4v-38.3Z"/>
        </g>
        <g>
          <path class="st0" d="M171,59.7c0-4.7,3-8.3,8.1-9.1,5.2-.7,8.1,2.1,8.1,6.8s-3,8.4-8.1,9.1c-5.1.7-8.1-2.1-8.1-6.8ZM182.2,58.1c0-4.1-.6-7.4-3-7.1-2.4.3-3,3.9-3,7.9s.6,7.5,3,7.1c2.4-.3,3-3.9,3-8Z"/>
          <path class="st0" d="M188,64.6c1.4-.3,2.6-1.2,2.6-3.7v-9.7l-2,.3v-.3c.4-.2.6-.3.9-.5.6-.4,1-1,1.2-2,.5-2.9,1.3-4.9,2.8-6.5,1.4-1.5,3.1-2.4,4.9-2.6,1.9-.3,3.7.5,3.7,2.3s-.6,2-1.8,2.6h-.5c-.6-2.2-1.8-4.1-3.1-3.9-1.4.2-1.6,2-1.6,3.3v5.1l4.8-.9-.5,2-4.4.6v9.6c0,2.7,1.1,3.1,3.5,2.9v.3c-2.6.3-4,.5-5.6.7-1.5.2-3.5.5-5.1.8v-.3Z"/>
        </g>
      </g>
      <g>
        <g>
          <g>
            <path class="st0" d="M44.2,85.3v4.6l-7.5,1.1c-1.8.3-3.1.3-3.8.1-.7-.2-1.2-.5-1.5-1-.3-.5-.4-1.5-.4-2.9-2.3.3-4.2,0-5.8-.9-1.6-.9-2.7-2.2-3.2-3.8-.5-1.7-.8-4.2-.8-7.6v-11.8c0-2.6.2-4.6.5-6,.3-1.4.9-2.8,1.9-4.1,1-1.3,2.2-2.4,3.7-3.3,1.5-.8,3.2-1.4,5-1.6,2.2-.3,4.2-.2,5.9.3,1.7.5,3,1.3,3.9,2.3.9,1,1.4,2.2,1.7,3.4.3,1.2.4,3.1.4,5.5v12.4c0,3.4-.2,5.7-.5,7-.3,1.3-1,2.3-1.9,3.2-.9.9-2.2,1.6-3.7,2.2,0,.8.2,1.4.5,1.5.3.2,1,.2,2.2,0l3.5-.5ZM34.2,58.3c0-1.8,0-2.9-.3-3.4-.2-.5-.6-.7-1.2-.6-.5,0-.9.3-1.2.8-.3.4-.4,1.6-.4,3.6v17.9c0,2.2,0,3.6.3,4.1.2.5.6.7,1.3.6.7,0,1.1-.5,1.3-1.1.2-.6.3-2.1.3-4.3v-17.6Z"/>
            <path class="st0" d="M70.5,43.3v25.6c0,2.9,0,5-.3,6.2-.2,1.2-.7,2.5-1.7,3.9-.9,1.4-2.2,2.5-3.7,3.3-1.5.9-3.3,1.4-5.4,1.7-2.3.3-4.3.2-6.1-.3-1.7-.5-3.1-1.3-3.9-2.4-.9-1.1-1.4-2.3-1.5-3.6-.2-1.3-.2-4.1-.2-8.5v-22.6l10-1.4v28.7c0,1.7,0,2.7.3,3.2.2.4.5.6,1.1.5.6,0,1-.4,1.2-.9.2-.5.3-1.8.3-3.7v-28.2l10-1.4Z"/>
            <path class="st0" d="M74.4,42.8l16.6-2.4v7.7l-6.6.9v7.3l6.2-.9v7.3l-6.2.9v8.4l7.3-1v7.7l-17.3,2.4v-38.3Z"/>
            <path class="st0" d="M94.5,39.9l16.6-2.4v7.7l-6.6.9v7.3l6.2-.9v7.3l-6.2.9v8.4l7.3-1v7.7l-17.3,2.4v-38.3Z"/>
            <path class="st0" d="M136.8,33.9v38.3l-8.7,1.2-5.2-16.7v17.4l-8.3,1.2v-38.3l8.3-1.2,5.6,16.4v-17.2l8.3-1.2Z"/>
            <path class="st0" d="M161.9,41.9l-9.2,1.3v-2.8c0-1.3-.1-2.1-.4-2.5-.2-.3-.6-.5-1.2-.4-.6,0-1.1.4-1.4.9-.3.5-.5,1.3-.5,2.3s.2,2.2.5,2.8c.3.6,1.3,1.2,2.8,1.9,4.4,2,7.2,3.8,8.4,5.3,1.2,1.5,1.7,4.2,1.7,7.9s-.3,4.8-1,6.2c-.6,1.4-1.9,2.6-3.7,3.8-1.8,1.1-4,1.9-6.4,2.2-2.7.4-4.9.2-6.8-.5-1.9-.7-3.1-1.8-3.7-3.3-.6-1.5-.9-3.6-.9-6.5v-2.5l9.2-1.3v4.7c0,1.4.1,2.3.4,2.7.3.4.7.5,1.4.4.7,0,1.2-.4,1.5-1,.3-.6.5-1.4.5-2.4,0-2.3-.3-3.7-.9-4.3-.6-.6-2.2-1.5-4.7-2.8-2.5-1.3-4.1-2.2-4.9-2.9-.8-.6-1.5-1.6-2-2.8-.5-1.2-.8-2.9-.8-4.9,0-2.9.4-5.1,1.1-6.6.7-1.5,2-2.7,3.6-3.7,1.7-1,3.7-1.7,6.1-2,2.6-.4,4.8-.3,6.6.3,1.8.6,3,1.5,3.6,2.6.6,1.2.9,3.3.9,6.3v1.5Z"/>
          </g>
          <g>
            <path class="st0" d="M44.2,85.3v4.6l-7.5,1.1c-1.8.3-3.1.3-3.8.1-.7-.2-1.2-.5-1.5-1-.3-.5-.4-1.5-.4-2.9-2.3.3-4.2,0-5.8-.9-1.6-.9-2.7-2.2-3.2-3.8-.5-1.7-.8-4.2-.8-7.6v-11.8c0-2.6.2-4.6.5-6,.3-1.4.9-2.8,1.9-4.1,1-1.3,2.2-2.4,3.7-3.3,1.5-.8,3.2-1.4,5-1.6,2.2-.3,4.2-.2,5.9.3,1.7.5,3,1.3,3.9,2.3.9,1,1.4,2.2,1.7,3.4.3,1.2.4,3.1.4,5.5v12.4c0,3.4-.2,5.7-.5,7-.3,1.3-1,2.3-1.9,3.2-.9.9-2.2,1.6-3.7,2.2,0,.8.2,1.4.5,1.5.3.2,1,.2,2.2,0l3.5-.5ZM34.2,58.3c0-1.8,0-2.9-.3-3.4-.2-.5-.6-.7-1.2-.6-.5,0-.9.3-1.2.8-.3.4-.4,1.6-.4,3.6v17.9c0,2.2,0,3.6.3,4.1.2.5.6.7,1.3.6.7,0,1.1-.5,1.3-1.1.2-.6.3-2.1.3-4.3v-17.6Z"/>
            <path class="st0" d="M70.5,43.3v25.6c0,2.9,0,5-.3,6.2-.2,1.2-.7,2.5-1.7,3.9-.9,1.4-2.2,2.5-3.7,3.3-1.5.9-3.3,1.4-5.4,1.7-2.3.3-4.3.2-6.1-.3-1.7-.5-3.1-1.3-3.9-2.4-.9-1.1-1.4-2.3-1.5-3.6-.2-1.3-.2-4.1-.2-8.5v-22.6l10-1.4v28.7c0,1.7,0,2.7.3,3.2.2.4.5.6,1.1.5.6,0,1-.4,1.2-.9.2-.5.3-1.8.3-3.7v-28.2l10-1.4Z"/>
            <path class="st0" d="M74.4,42.8l16.6-2.4v7.7l-6.6.9v7.3l6.2-.9v7.3l-6.2.9v8.4l7.3-1v7.7l-17.3,2.4v-38.3Z"/>
            <path class="st0" d="M94.5,39.9l16.6-2.4v7.7l-6.6.9v7.3l6.2-.9v7.3l-6.2.9v8.4l7.3-1v7.7l-17.3,2.4v-38.3Z"/>
            <path class="st0" d="M136.8,33.9v38.3l-8.7,1.2-5.2-16.7v17.4l-8.3,1.2v-38.3l8.3-1.2,5.6,16.4v-17.2l8.3-1.2Z"/>
            <path class="st0" d="M161.9,41.9l-9.2,1.3v-2.8c0-1.3-.1-2.1-.4-2.5-.2-.3-.6-.5-1.2-.4-.6,0-1.1.4-1.4.9-.3.5-.5,1.3-.5,2.3s.2,2.2.5,2.8c.3.6,1.3,1.2,2.8,1.9,4.4,2,7.2,3.8,8.4,5.3,1.2,1.5,1.7,4.2,1.7,7.9s-.3,4.8-1,6.2c-.6,1.4-1.9,2.6-3.7,3.8-1.8,1.1-4,1.9-6.4,2.2-2.7.4-4.9.2-6.8-.5-1.9-.7-3.1-1.8-3.7-3.3-.6-1.5-.9-3.6-.9-6.5v-2.5l9.2-1.3v4.7c0,1.4.1,2.3.4,2.7.3.4.7.5,1.4.4.7,0,1.2-.4,1.5-1,.3-.6.5-1.4.5-2.4,0-2.3-.3-3.7-.9-4.3-.6-.6-2.2-1.5-4.7-2.8-2.5-1.3-4.1-2.2-4.9-2.9-.8-.6-1.5-1.6-2-2.8-.5-1.2-.8-2.9-.8-4.9,0-2.9.4-5.1,1.1-6.6.7-1.5,2-2.7,3.6-3.7,1.7-1,3.7-1.7,6.1-2,2.6-.4,4.8-.3,6.6.3,1.8.6,3,1.5,3.6,2.6.6,1.2.9,3.3.9,6.3v1.5Z"/>
          </g>
          <g>
            <path class="st0" d="M44.2,85.3v4.6l-7.5,1.1c-1.8.3-3.1.3-3.8.1-.7-.2-1.2-.5-1.5-1-.3-.5-.4-1.5-.4-2.9-2.3.3-4.2,0-5.8-.9-1.6-.9-2.7-2.2-3.2-3.8-.5-1.7-.8-4.2-.8-7.6v-11.8c0-2.6.2-4.6.5-6,.3-1.4.9-2.8,1.9-4.1,1-1.3,2.2-2.4,3.7-3.3,1.5-.8,3.2-1.4,5-1.6,2.2-.3,4.2-.2,5.9.3,1.7.5,3,1.3,3.9,2.3.9,1,1.4,2.2,1.7,3.4.3,1.2.4,3.1.4,5.5v12.4c0,3.4-.2,5.7-.5,7-.3,1.3-1,2.3-1.9,3.2-.9.9-2.2,1.6-3.7,2.2,0,.8.2,1.4.5,1.5.3.2,1,.2,2.2,0l3.5-.5ZM34.2,58.3c0-1.8,0-2.9-.3-3.4-.2-.5-.6-.7-1.2-.6-.5,0-.9.3-1.2.8-.3.4-.4,1.6-.4,3.6v17.9c0,2.2,0,3.6.3,4.1.2.5.6.7,1.3.6.7,0,1.1-.5,1.3-1.1.2-.6.3-2.1.3-4.3v-17.6Z"/>
            <path class="st0" d="M70.5,43.3v25.6c0,2.9,0,5-.3,6.2-.2,1.2-.7,2.5-1.7,3.9-.9,1.4-2.2,2.5-3.7,3.3-1.5.9-3.3,1.4-5.4,1.7-2.3.3-4.3.2-6.1-.3-1.7-.5-3.1-1.3-3.9-2.4-.9-1.1-1.4-2.3-1.5-3.6-.2-1.3-.2-4.1-.2-8.5v-22.6l10-1.4v28.7c0,1.7,0,2.7.3,3.2.2.4.5.6,1.1.5.6,0,1-.4,1.2-.9.2-.5.3-1.8.3-3.7v-28.2l10-1.4Z"/>
            <path class="st0" d="M74.4,42.8l16.6-2.4v7.7l-6.6.9v7.3l6.2-.9v7.3l-6.2.9v8.4l7.3-1v7.7l-17.3,2.4v-38.3Z"/>
            <path class="st0" d="M94.5,39.9l16.6-2.4v7.7l-6.6.9v7.3l6.2-.9v7.3l-6.2.9v8.4l7.3-1v7.7l-17.3,2.4v-38.3Z"/>
            <path class="st0" d="M136.8,33.9v38.3l-8.7,1.2-5.2-16.7v17.4l-8.3,1.2v-38.3l8.3-1.2,5.6,16.4v-17.2l8.3-1.2Z"/>
            <path class="st0" d="M161.9,41.9l-9.2,1.3v-2.8c0-1.3-.1-2.1-.4-2.5-.2-.3-.6-.5-1.2-.4-.6,0-1.1.4-1.4.9-.3.5-.5,1.3-.5,2.3s.2,2.2.5,2.8c.3.6,1.3,1.2,2.8,1.9,4.4,2,7.2,3.8,8.4,5.3,1.2,1.5,1.7,4.2,1.7,7.9s-.3,4.8-1,6.2c-.6,1.4-1.9,2.6-3.7,3.8-1.8,1.1-4,1.9-6.4,2.2-2.7.4-4.9.2-6.8-.5-1.9-.7-3.1-1.8-3.7-3.3-.6-1.5-.9-3.6-.9-6.5v-2.5l9.2-1.3v4.7c0,1.4.1,2.3.4,2.7.3.4.7.5,1.4.4.7,0,1.2-.4,1.5-1,.3-.6.5-1.4.5-2.4,0-2.3-.3-3.7-.9-4.3-.6-.6-2.2-1.5-4.7-2.8-2.5-1.3-4.1-2.2-4.9-2.9-.8-.6-1.5-1.6-2-2.8-.5-1.2-.8-2.9-.8-4.9,0-2.9.4-5.1,1.1-6.6.7-1.5,2-2.7,3.6-3.7,1.7-1,3.7-1.7,6.1-2,2.6-.4,4.8-.3,6.6.3,1.8.6,3,1.5,3.6,2.6.6,1.2.9,3.3.9,6.3v1.5Z"/>
          </g>
        </g>
        <g>
          <path class="st0" d="M66.1,99.3l-9.2,1.3v-2.8c0-1.3-.1-2.1-.4-2.5-.2-.3-.6-.5-1.2-.4-.6,0-1.1.4-1.4.9-.3.5-.5,1.3-.5,2.3s.2,2.2.5,2.8c.3.6,1.3,1.2,2.8,1.9,4.4,2,7.2,3.8,8.4,5.3s1.7,4.2,1.7,7.9-.3,4.8-1,6.2c-.6,1.4-1.9,2.6-3.7,3.8-1.8,1.1-4,1.9-6.4,2.2-2.7.4-4.9.2-6.8-.5-1.9-.7-3.1-1.8-3.7-3.3-.6-1.5-.9-3.6-.9-6.5v-2.5l9.2-1.3v4.7c0,1.4.1,2.3.4,2.7.3.4.7.5,1.4.4.7,0,1.2-.4,1.5-1,.3-.6.5-1.4.5-2.4,0-2.3-.3-3.7-.9-4.3-.6-.6-2.2-1.5-4.7-2.8-2.5-1.3-4.1-2.2-4.9-2.9-.8-.6-1.5-1.6-2-2.8-.5-1.2-.8-2.9-.8-4.9,0-2.9.4-5.1,1.1-6.6.7-1.5,2-2.7,3.6-3.7,1.7-1,3.7-1.7,6.1-2,2.6-.4,4.8-.3,6.6.3,1.8.6,3,1.5,3.6,2.6.6,1.2.9,3.3.9,6.3v1.5Z"/>
          <path class="st0" d="M93.3,100.6l-10,1.4v-6.7c0-1.9-.1-3.1-.3-3.6-.2-.4-.7-.6-1.4-.5-.8.1-1.3.5-1.6,1.1s-.3,1.9-.3,3.8v17.8c0,1.9.1,3.1.3,3.6s.7.7,1.5.6c.7-.1,1.2-.5,1.5-1.1.2-.6.3-2,.3-4.1v-4.8l10-1.4v1.5c0,4-.3,6.8-.8,8.5-.6,1.7-1.8,3.4-3.7,4.9-1.9,1.5-4.3,2.5-7.1,2.9-2.9.4-5.3.2-7.2-.6-1.9-.8-3.1-2.1-3.8-3.9-.6-1.8-.9-4.5-.9-8.3v-11.2c0-2.8,0-4.8.3-6.2.2-1.4.8-2.8,1.7-4.2.9-1.4,2.2-2.6,3.9-3.6,1.7-1,3.6-1.6,5.7-1.9,2.9-.4,5.3-.2,7.3.7,1.9.9,3.2,2.1,3.8,3.7.6,1.6.9,4.2.9,7.8v3.6Z"/>
          <path class="st0" d="M106.8,82v38.3l-10,1.4v-38.3l10-1.4Z"/>
          <path class="st0" d="M110.8,81.4l16.6-2.4v7.7l-6.6.9v7.3l6.2-.9v7.3l-6.2.9v8.4l7.3-1v7.7l-17.3,2.4v-38.3Z"/>
          <path class="st0" d="M153.1,75.4v38.3l-8.7,1.2-5.2-16.7v17.4l-8.3,1.2v-38.3l8.3-1.2,5.6,16.4v-17.2l8.3-1.2Z"/>
          <path class="st0" d="M180.4,88.2l-10,1.4v-6.7c0-1.9-.1-3.1-.3-3.6-.2-.5-.7-.6-1.4-.5-.8.1-1.3.5-1.6,1.1-.2.6-.3,1.9-.3,3.8v17.8c0,1.9.1,3.1.3,3.6.2.5.7.7,1.5.6.7-.1,1.2-.5,1.5-1.1.2-.6.3-2,.3-4.1v-4.8l10-1.4v1.5c0,4-.3,6.8-.8,8.5-.6,1.7-1.8,3.4-3.7,4.9-1.9,1.5-4.3,2.5-7.1,2.9-2.9.4-5.3.2-7.2-.6-1.9-.8-3.1-2.1-3.8-3.9-.6-1.8-.9-4.5-.9-8.3v-11.2c0-2.8,0-4.8.3-6.2.2-1.4.8-2.8,1.7-4.2.9-1.4,2.2-2.6,3.9-3.6,1.7-1,3.6-1.6,5.7-1.9,2.9-.4,5.3-.2,7.3.7,1.9.9,3.2,2.1,3.8,3.7.6,1.6.9,4.2.9,7.8v3.6Z"/>
          <path class="st0" d="M183.9,71l16.6-2.4v7.7l-6.6.9v7.3l6.2-.9v7.3l-6.2.9v8.4l7.3-1v7.7l-17.3,2.4v-38.3Z"/>
        </g>
        <g>
          <path class="st0" d="M171,59.7c0-4.7,3-8.3,8.1-9.1,5.2-.7,8.1,2.1,8.1,6.8s-3,8.4-8.1,9.1c-5.1.7-8.1-2.1-8.1-6.8ZM182.2,58.1c0-4.1-.6-7.4-3-7.1-2.4.3-3,3.9-3,7.9s.6,7.5,3,7.1c2.4-.3,3-3.9,3-8Z"/>
          <path class="st0" d="M188,64.6c1.4-.3,2.6-1.2,2.6-3.7v-9.7l-2,.3v-.3c.4-.2.6-.3.9-.5.6-.4,1-1,1.2-2,.5-2.9,1.3-4.9,2.8-6.5,1.4-1.5,3.1-2.4,4.9-2.6,1.9-.3,3.7.5,3.7,2.3s-.6,2-1.8,2.6h-.5c-.6-2.2-1.8-4.1-3.1-3.9-1.4.2-1.6,2-1.6,3.3v5.1l4.8-.9-.5,2-4.4.6v9.6c0,2.7,1.1,3.1,3.5,2.9v.3c-2.6.3-4,.5-5.6.7-1.5.2-3.5.5-5.1.8v-.3Z"/>
        </g>
      </g>
    </g>
  </g>
  <g>
    <polygon class="st2" points="219.1 119.1 2.3 149.8 2.3 33.5 219.1 2.7 219.1 119.1"/>
    <g>
      <g>
        <g>
          <g>
            <path class="st0" d="M43.2,84.3v4.6l-7.5,1.1c-1.8.3-3.1.3-3.8.1-.7-.2-1.2-.5-1.5-1-.3-.5-.4-1.5-.4-2.9-2.3.3-4.2,0-5.8-.9-1.6-.9-2.7-2.2-3.2-3.8-.5-1.7-.8-4.2-.8-7.6v-11.8c0-2.6.2-4.6.5-6,.3-1.4.9-2.8,1.9-4.1,1-1.3,2.2-2.4,3.7-3.3,1.5-.8,3.2-1.4,5-1.6,2.2-.3,4.2-.2,5.9.3,1.7.5,3,1.3,3.9,2.3.9,1,1.4,2.2,1.7,3.4.3,1.2.4,3.1.4,5.5v12.4c0,3.4-.2,5.7-.5,7-.3,1.3-1,2.3-1.9,3.2-.9.9-2.2,1.6-3.7,2.2,0,.8.2,1.4.5,1.5.3.2,1,.2,2.2,0l3.5-.5ZM33.2,57.3c0-1.8,0-2.9-.3-3.4-.2-.5-.6-.7-1.2-.6-.5,0-.9.3-1.2.8-.3.4-.4,1.6-.4,3.6v17.9c0,2.2,0,3.6.3,4.1.2.5.6.7,1.3.6.7,0,1.1-.5,1.3-1.1.2-.6.3-2.1.3-4.3v-17.6Z"/>
            <path class="st0" d="M69.5,42.3v25.6c0,2.9,0,5-.3,6.2-.2,1.2-.7,2.5-1.7,3.9-.9,1.4-2.2,2.5-3.7,3.3-1.5.9-3.3,1.4-5.4,1.7-2.3.3-4.3.2-6.1-.3-1.7-.5-3.1-1.3-3.9-2.4-.9-1.1-1.4-2.3-1.5-3.6-.2-1.3-.2-4.1-.2-8.5v-22.6l10-1.4v28.7c0,1.7,0,2.7.3,3.2.2.4.5.6,1.1.5.6,0,1-.4,1.2-.9.2-.5.3-1.8.3-3.7v-28.2l10-1.4Z"/>
            <path class="st0" d="M73.4,41.8l16.6-2.4v7.7l-6.6.9v7.3l6.2-.9v7.3l-6.2.9v8.4l7.3-1v7.7l-17.3,2.4v-38.3Z"/>
            <path class="st0" d="M93.5,38.9l16.6-2.4v7.7l-6.6.9v7.3l6.2-.9v7.3l-6.2.9v8.4l7.3-1v7.7l-17.3,2.4v-38.3Z"/>
            <path class="st0" d="M135.8,32.9v38.3l-8.7,1.2-5.2-16.7v17.4l-8.3,1.2v-38.3l8.3-1.2,5.6,16.4v-17.2l8.3-1.2Z"/>
            <path class="st0" d="M160.9,40.9l-9.2,1.3v-2.8c0-1.3-.1-2.1-.4-2.5-.2-.3-.6-.5-1.2-.4-.6,0-1.1.4-1.4.9-.3.5-.5,1.3-.5,2.3s.2,2.2.5,2.8c.3.6,1.3,1.2,2.8,1.9,4.4,2,7.2,3.8,8.4,5.3,1.2,1.5,1.7,4.2,1.7,7.9s-.3,4.8-1,6.2c-.6,1.4-1.9,2.6-3.7,3.8-1.8,1.1-4,1.9-6.4,2.2-2.7.4-4.9.2-6.8-.5-1.9-.7-3.1-1.8-3.7-3.3-.6-1.5-.9-3.6-.9-6.5v-2.5l9.2-1.3v4.7c0,1.4.1,2.3.4,2.7.3.4.7.5,1.4.4.7,0,1.2-.4,1.5-1,.3-.6.5-1.4.5-2.4,0-2.3-.3-3.7-.9-4.3-.6-.6-2.2-1.5-4.7-2.8-2.5-1.3-4.1-2.2-4.9-2.9-.8-.6-1.5-1.6-2-2.8-.5-1.2-.8-2.9-.8-4.9,0-2.9.4-5.1,1.1-6.6.7-1.5,2-2.7,3.6-3.7,1.7-1,3.7-1.7,6.1-2,2.6-.4,4.8-.3,6.6.3,1.8.6,3,1.5,3.6,2.6.6,1.2.9,3.3.9,6.3v1.5Z"/>
          </g>
          <g>
            <path class="st0" d="M43.2,84.3v4.6l-7.5,1.1c-1.8.3-3.1.3-3.8.1-.7-.2-1.2-.5-1.5-1-.3-.5-.4-1.5-.4-2.9-2.3.3-4.2,0-5.8-.9-1.6-.9-2.7-2.2-3.2-3.8-.5-1.7-.8-4.2-.8-7.6v-11.8c0-2.6.2-4.6.5-6,.3-1.4.9-2.8,1.9-4.1,1-1.3,2.2-2.4,3.7-3.3,1.5-.8,3.2-1.4,5-1.6,2.2-.3,4.2-.2,5.9.3,1.7.5,3,1.3,3.9,2.3.9,1,1.4,2.2,1.7,3.4.3,1.2.4,3.1.4,5.5v12.4c0,3.4-.2,5.7-.5,7-.3,1.3-1,2.3-1.9,3.2-.9.9-2.2,1.6-3.7,2.2,0,.8.2,1.4.5,1.5.3.2,1,.2,2.2,0l3.5-.5ZM33.2,57.3c0-1.8,0-2.9-.3-3.4-.2-.5-.6-.7-1.2-.6-.5,0-.9.3-1.2.8-.3.4-.4,1.6-.4,3.6v17.9c0,2.2,0,3.6.3,4.1.2.5.6.7,1.3.6.7,0,1.1-.5,1.3-1.1.2-.6.3-2.1.3-4.3v-17.6Z"/>
            <path class="st0" d="M69.5,42.3v25.6c0,2.9,0,5-.3,6.2-.2,1.2-.7,2.5-1.7,3.9-.9,1.4-2.2,2.5-3.7,3.3-1.5.9-3.3,1.4-5.4,1.7-2.3.3-4.3.2-6.1-.3-1.7-.5-3.1-1.3-3.9-2.4-.9-1.1-1.4-2.3-1.5-3.6-.2-1.3-.2-4.1-.2-8.5v-22.6l10-1.4v28.7c0,1.7,0,2.7.3,3.2.2.4.5.6,1.1.5.6,0,1-.4,1.2-.9.2-.5.3-1.8.3-3.7v-28.2l10-1.4Z"/>
            <path class="st0" d="M73.4,41.8l16.6-2.4v7.7l-6.6.9v7.3l6.2-.9v7.3l-6.2.9v8.4l7.3-1v7.7l-17.3,2.4v-38.3Z"/>
            <path class="st0" d="M93.5,38.9l16.6-2.4v7.7l-6.6.9v7.3l6.2-.9v7.3l-6.2.9v8.4l7.3-1v7.7l-17.3,2.4v-38.3Z"/>
            <path class="st0" d="M135.8,32.9v38.3l-8.7,1.2-5.2-16.7v17.4l-8.3,1.2v-38.3l8.3-1.2,5.6,16.4v-17.2l8.3-1.2Z"/>
            <path class="st0" d="M160.9,40.9l-9.2,1.3v-2.8c0-1.3-.1-2.1-.4-2.5-.2-.3-.6-.5-1.2-.4-.6,0-1.1.4-1.4.9-.3.5-.5,1.3-.5,2.3s.2,2.2.5,2.8c.3.6,1.3,1.2,2.8,1.9,4.4,2,7.2,3.8,8.4,5.3,1.2,1.5,1.7,4.2,1.7,7.9s-.3,4.8-1,6.2c-.6,1.4-1.9,2.6-3.7,3.8-1.8,1.1-4,1.9-6.4,2.2-2.7.4-4.9.2-6.8-.5-1.9-.7-3.1-1.8-3.7-3.3-.6-1.5-.9-3.6-.9-6.5v-2.5l9.2-1.3v4.7c0,1.4.1,2.3.4,2.7.3.4.7.5,1.4.4.7,0,1.2-.4,1.5-1,.3-.6.5-1.4.5-2.4,0-2.3-.3-3.7-.9-4.3-.6-.6-2.2-1.5-4.7-2.8-2.5-1.3-4.1-2.2-4.9-2.9-.8-.6-1.5-1.6-2-2.8-.5-1.2-.8-2.9-.8-4.9,0-2.9.4-5.1,1.1-6.6.7-1.5,2-2.7,3.6-3.7,1.7-1,3.7-1.7,6.1-2,2.6-.4,4.8-.3,6.6.3,1.8.6,3,1.5,3.6,2.6.6,1.2.9,3.3.9,6.3v1.5Z"/>
          </g>
          <g>
            <path class="st0" d="M43.2,84.3v4.6l-7.5,1.1c-1.8.3-3.1.3-3.8.1-.7-.2-1.2-.5-1.5-1-.3-.5-.4-1.5-.4-2.9-2.3.3-4.2,0-5.8-.9-1.6-.9-2.7-2.2-3.2-3.8-.5-1.7-.8-4.2-.8-7.6v-11.8c0-2.6.2-4.6.5-6,.3-1.4.9-2.8,1.9-4.1,1-1.3,2.2-2.4,3.7-3.3,1.5-.8,3.2-1.4,5-1.6,2.2-.3,4.2-.2,5.9.3,1.7.5,3,1.3,3.9,2.3.9,1,1.4,2.2,1.7,3.4.3,1.2.4,3.1.4,5.5v12.4c0,3.4-.2,5.7-.5,7-.3,1.3-1,2.3-1.9,3.2-.9.9-2.2,1.6-3.7,2.2,0,.8.2,1.4.5,1.5.3.2,1,.2,2.2,0l3.5-.5ZM33.2,57.3c0-1.8,0-2.9-.3-3.4-.2-.5-.6-.7-1.2-.6-.5,0-.9.3-1.2.8-.3.4-.4,1.6-.4,3.6v17.9c0,2.2,0,3.6.3,4.1.2.5.6.7,1.3.6.7,0,1.1-.5,1.3-1.1.2-.6.3-2.1.3-4.3v-17.6Z"/>
            <path class="st0" d="M69.5,42.3v25.6c0,2.9,0,5-.3,6.2-.2,1.2-.7,2.5-1.7,3.9-.9,1.4-2.2,2.5-3.7,3.3-1.5.9-3.3,1.4-5.4,1.7-2.3.3-4.3.2-6.1-.3-1.7-.5-3.1-1.3-3.9-2.4-.9-1.1-1.4-2.3-1.5-3.6-.2-1.3-.2-4.1-.2-8.5v-22.6l10-1.4v28.7c0,1.7,0,2.7.3,3.2.2.4.5.6,1.1.5.6,0,1-.4,1.2-.9.2-.5.3-1.8.3-3.7v-28.2l10-1.4Z"/>
            <path class="st0" d="M73.4,41.8l16.6-2.4v7.7l-6.6.9v7.3l6.2-.9v7.3l-6.2.9v8.4l7.3-1v7.7l-17.3,2.4v-38.3Z"/>
            <path class="st0" d="M93.5,38.9l16.6-2.4v7.7l-6.6.9v7.3l6.2-.9v7.3l-6.2.9v8.4l7.3-1v7.7l-17.3,2.4v-38.3Z"/>
            <path class="st0" d="M135.8,32.9v38.3l-8.7,1.2-5.2-16.7v17.4l-8.3,1.2v-38.3l8.3-1.2,5.6,16.4v-17.2l8.3-1.2Z"/>
            <path class="st0" d="M160.9,40.9l-9.2,1.3v-2.8c0-1.3-.1-2.1-.4-2.5-.2-.3-.6-.5-1.2-.4-.6,0-1.1.4-1.4.9-.3.5-.5,1.3-.5,2.3s.2,2.2.5,2.8c.3.6,1.3,1.2,2.8,1.9,4.4,2,7.2,3.8,8.4,5.3,1.2,1.5,1.7,4.2,1.7,7.9s-.3,4.8-1,6.2c-.6,1.4-1.9,2.6-3.7,3.8-1.8,1.1-4,1.9-6.4,2.2-2.7.4-4.9.2-6.8-.5-1.9-.7-3.1-1.8-3.7-3.3-.6-1.5-.9-3.6-.9-6.5v-2.5l9.2-1.3v4.7c0,1.4.1,2.3.4,2.7.3.4.7.5,1.4.4.7,0,1.2-.4,1.5-1,.3-.6.5-1.4.5-2.4,0-2.3-.3-3.7-.9-4.3-.6-.6-2.2-1.5-4.7-2.8-2.5-1.3-4.1-2.2-4.9-2.9-.8-.6-1.5-1.6-2-2.8-.5-1.2-.8-2.9-.8-4.9,0-2.9.4-5.1,1.1-6.6.7-1.5,2-2.7,3.6-3.7,1.7-1,3.7-1.7,6.1-2,2.6-.4,4.8-.3,6.6.3,1.8.6,3,1.5,3.6,2.6.6,1.2.9,3.3.9,6.3v1.5Z"/>
          </g>
        </g>
        <g>
          <path class="st0" d="M65.1,98.3l-9.2,1.3v-2.8c0-1.3-.1-2.1-.4-2.5-.2-.3-.6-.5-1.2-.4-.6,0-1.1.4-1.4.9-.3.5-.5,1.3-.5,2.3s.2,2.2.5,2.8c.3.6,1.3,1.2,2.8,1.9,4.4,2,7.2,3.8,8.4,5.3s1.7,4.2,1.7,7.9-.3,4.8-1,6.2c-.6,1.4-1.9,2.6-3.7,3.8-1.8,1.1-4,1.9-6.4,2.2-2.7.4-4.9.2-6.8-.5-1.9-.7-3.1-1.8-3.7-3.3-.6-1.5-.9-3.6-.9-6.5v-2.5l9.2-1.3v4.7c0,1.4.1,2.3.4,2.7.3.4.7.5,1.4.4.7,0,1.2-.4,1.5-1,.3-.6.5-1.4.5-2.4,0-2.3-.3-3.7-.9-4.3-.6-.6-2.2-1.5-4.7-2.8-2.5-1.3-4.1-2.2-4.9-2.9-.8-.6-1.5-1.6-2-2.8-.5-1.2-.8-2.9-.8-4.9,0-2.9.4-5.1,1.1-6.6.7-1.5,2-2.7,3.6-3.7,1.7-1,3.7-1.7,6.1-2,2.6-.4,4.8-.3,6.6.3,1.8.6,3,1.5,3.6,2.6.6,1.2.9,3.3.9,6.3v1.5Z"/>
          <path class="st0" d="M92.3,99.6l-10,1.4v-6.7c0-1.9-.1-3.1-.3-3.6-.2-.4-.7-.6-1.4-.5-.8.1-1.3.5-1.6,1.1s-.3,1.9-.3,3.8v17.8c0,1.9.1,3.1.3,3.6s.7.7,1.5.6c.7-.1,1.2-.5,1.5-1.1.2-.6.3-2,.3-4.1v-4.8l10-1.4v1.5c0,4-.3,6.8-.8,8.5-.6,1.7-1.8,3.4-3.7,4.9-1.9,1.5-4.3,2.5-7.1,2.9-2.9.4-5.3.2-7.2-.6-1.9-.8-3.1-2.1-3.8-3.9-.6-1.8-.9-4.5-.9-8.3v-11.2c0-2.8,0-4.8.3-6.2.2-1.4.8-2.8,1.7-4.2.9-1.4,2.2-2.6,3.9-3.6,1.7-1,3.6-1.6,5.7-1.9,2.9-.4,5.3-.2,7.3.7,1.9.9,3.2,2.1,3.8,3.7.6,1.6.9,4.2.9,7.8v3.6Z"/>
          <path class="st0" d="M105.8,81v38.3l-10,1.4v-38.3l10-1.4Z"/>
          <path class="st0" d="M109.8,80.4l16.6-2.4v7.7l-6.6.9v7.3l6.2-.9v7.3l-6.2.9v8.4l7.3-1v7.7l-17.3,2.4v-38.3Z"/>
          <path class="st0" d="M152.1,74.4v38.3l-8.7,1.2-5.2-16.7v17.4l-8.3,1.2v-38.3l8.3-1.2,5.6,16.4v-17.2l8.3-1.2Z"/>
          <path class="st0" d="M179.4,87.2l-10,1.4v-6.7c0-1.9-.1-3.1-.3-3.6-.2-.5-.7-.6-1.4-.5-.8.1-1.3.5-1.6,1.1-.2.6-.3,1.9-.3,3.8v17.8c0,1.9.1,3.1.3,3.6.2.5.7.7,1.5.6.7-.1,1.2-.5,1.5-1.1.2-.6.3-2,.3-4.1v-4.8l10-1.4v1.5c0,4-.3,6.8-.8,8.5-.6,1.7-1.8,3.4-3.7,4.9-1.9,1.5-4.3,2.5-7.1,2.9-2.9.4-5.3.2-7.2-.6-1.9-.8-3.1-2.1-3.8-3.9-.6-1.8-.9-4.5-.9-8.3v-11.2c0-2.8,0-4.8.3-6.2.2-1.4.8-2.8,1.7-4.2.9-1.4,2.2-2.6,3.9-3.6,1.7-1,3.6-1.6,5.7-1.9,2.9-.4,5.3-.2,7.3.7,1.9.9,3.2,2.1,3.8,3.7.6,1.6.9,4.2.9,7.8v3.6Z"/>
          <path class="st0" d="M182.9,70l16.6-2.4v7.7l-6.6.9v7.3l6.2-.9v7.3l-6.2.9v8.4l7.3-1v7.7l-17.3,2.4v-38.3Z"/>
        </g>
        <g>
          <path class="st0" d="M170,58.7c0-4.7,3-8.3,8.1-9.1,5.2-.7,8.1,2.1,8.1,6.8s-3,8.4-8.1,9.1c-5.1.7-8.1-2.1-8.1-6.8ZM181.2,57.1c0-4.1-.6-7.4-3-7.1-2.4.3-3,3.9-3,7.9s.6,7.5,3,7.1c2.4-.3,3-3.9,3-8Z"/>
          <path class="st0" d="M187,63.6c1.4-.3,2.6-1.2,2.6-3.7v-9.7l-2,.3v-.3c.4-.2.6-.3.9-.5.6-.4,1-1,1.2-2,.5-2.9,1.3-4.9,2.8-6.5,1.4-1.5,3.1-2.4,4.9-2.6,1.9-.3,3.7.5,3.7,2.3s-.6,2-1.8,2.6h-.5c-.6-2.2-1.8-4.1-3.1-3.9-1.4.2-1.6,2-1.6,3.3v5.1l4.8-.9-.5,2-4.4.6v9.6c0,2.7,1.1,3.1,3.5,2.9v.3c-2.6.3-4,.5-5.6.7-1.5.2-3.5.5-5.1.8v-.3Z"/>
        </g>
      </g>
      <g>
        <g>
          <path class="st1" d="M41.2,82.3v4.6l-7.5,1.1c-1.8.3-3.1.3-3.8.1-.7-.2-1.2-.5-1.5-1-.3-.5-.4-1.5-.4-2.9-2.3.3-4.2,0-5.8-.9-1.6-.9-2.7-2.2-3.2-3.8-.5-1.7-.8-4.2-.8-7.6v-11.8c0-2.6.2-4.6.5-6,.3-1.4.9-2.8,1.9-4.1,1-1.3,2.2-2.4,3.7-3.3,1.5-.8,3.2-1.4,5-1.6,2.2-.3,4.2-.2,5.9.3,1.7.5,3,1.3,3.9,2.3.9,1,1.4,2.2,1.7,3.4.3,1.2.4,3.1.4,5.5v12.4c0,3.4-.2,5.7-.5,7-.3,1.3-1,2.3-1.9,3.2-.9.9-2.2,1.6-3.7,2.2,0,.8.2,1.4.5,1.5.3.2,1,.2,2.2,0l3.5-.5ZM31.2,55.3c0-1.8,0-2.9-.3-3.4-.2-.5-.6-.7-1.2-.6-.5,0-.9.3-1.2.8-.3.4-.4,1.6-.4,3.6v17.9c0,2.2,0,3.6.3,4.1.2.5.6.7,1.3.6.7,0,1.1-.5,1.3-1.1.2-.6.3-2.1.3-4.3v-17.6Z"/>
          <path class="st1" d="M67.5,40.3v25.6c0,2.9,0,5-.3,6.2-.2,1.2-.7,2.5-1.7,3.9-.9,1.4-2.2,2.5-3.7,3.3-1.5.9-3.3,1.4-5.4,1.7-2.3.3-4.3.2-6.1-.3-1.7-.5-3.1-1.3-3.9-2.4-.9-1.1-1.4-2.3-1.5-3.6-.2-1.3-.2-4.1-.2-8.5v-22.6l10-1.4v28.7c0,1.7,0,2.7.3,3.2.2.4.5.6,1.1.5.6,0,1-.4,1.2-.9.2-.5.3-1.8.3-3.7v-28.2l10-1.4Z"/>
          <path class="st1" d="M71.4,39.8l16.6-2.4v7.7l-6.6.9v7.3l6.2-.9v7.3l-6.2.9v8.4l7.3-1v7.7l-17.3,2.4v-38.3Z"/>
          <path class="st1" d="M91.5,36.9l16.6-2.4v7.7l-6.6.9v7.3l6.2-.9v7.3l-6.2.9v8.4l7.3-1v7.7l-17.3,2.4v-38.3Z"/>
          <path class="st1" d="M133.8,30.9v38.3l-8.7,1.2-5.2-16.7v17.4l-8.3,1.2v-38.3l8.3-1.2,5.6,16.4v-17.2l8.3-1.2Z"/>
          <path class="st1" d="M158.9,38.9l-9.2,1.3v-2.8c0-1.3-.1-2.1-.4-2.5-.2-.3-.6-.5-1.2-.4-.6,0-1.1.4-1.4.9-.3.5-.5,1.3-.5,2.3s.2,2.2.5,2.8c.3.6,1.3,1.2,2.8,1.9,4.4,2,7.2,3.8,8.4,5.3,1.2,1.5,1.7,4.2,1.7,7.9s-.3,4.8-1,6.2c-.6,1.4-1.9,2.6-3.7,3.8-1.8,1.1-4,1.9-6.4,2.2-2.7.4-4.9.2-6.8-.5-1.9-.7-3.1-1.8-3.7-3.3-.6-1.5-.9-3.6-.9-6.5v-2.5l9.2-1.3v4.7c0,1.4.1,2.3.4,2.7.3.4.7.5,1.4.4.7,0,1.2-.4,1.5-1,.3-.6.5-1.4.5-2.4,0-2.3-.3-3.7-.9-4.3-.6-.6-2.2-1.5-4.7-2.8-2.5-1.3-4.1-2.2-4.9-2.9-.8-.6-1.5-1.6-2-2.8-.5-1.2-.8-2.9-.8-4.9,0-2.9.4-5.1,1.1-6.6.7-1.5,2-2.7,3.6-3.7,1.7-1,3.7-1.7,6.1-2,2.6-.4,4.8-.3,6.6.3,1.8.6,3,1.5,3.6,2.6.6,1.2.9,3.3.9,6.3v1.5Z"/>
        </g>
        <g>
          <path class="st1" d="M63.1,96.3l-9.2,1.3v-2.8c0-1.3-.1-2.1-.4-2.5-.2-.3-.6-.5-1.2-.4-.6,0-1.1.4-1.4.9-.3.5-.5,1.3-.5,2.3s.2,2.2.5,2.8c.3.6,1.3,1.2,2.8,1.9,4.4,2,7.2,3.8,8.4,5.3s1.7,4.2,1.7,7.9-.3,4.8-1,6.2c-.6,1.4-1.9,2.6-3.7,3.8-1.8,1.1-4,1.9-6.4,2.2-2.7.4-4.9.2-6.8-.5-1.9-.7-3.1-1.8-3.7-3.3-.6-1.5-.9-3.6-.9-6.5v-2.5l9.2-1.3v4.7c0,1.4.1,2.3.4,2.7.3.4.7.5,1.4.4.7,0,1.2-.4,1.5-1,.3-.6.5-1.4.5-2.4,0-2.3-.3-3.7-.9-4.3-.6-.6-2.2-1.5-4.7-2.8-2.5-1.3-4.1-2.2-4.9-2.9-.8-.6-1.5-1.6-2-2.8-.5-1.2-.8-2.9-.8-4.9,0-2.9.4-5.1,1.1-6.6.7-1.5,2-2.7,3.6-3.7,1.7-1,3.7-1.7,6.1-2,2.6-.4,4.8-.3,6.6.3,1.8.6,3,1.5,3.6,2.6.6,1.2.9,3.3.9,6.3v1.5Z"/>
          <path class="st1" d="M90.3,97.6l-10,1.4v-6.7c0-1.9-.1-3.1-.3-3.6-.2-.4-.7-.6-1.4-.5-.8.1-1.3.5-1.6,1.1s-.3,1.9-.3,3.8v17.8c0,1.9.1,3.1.3,3.6s.7.7,1.5.6c.7-.1,1.2-.5,1.5-1.1.2-.6.3-2,.3-4.1v-4.8l10-1.4v1.5c0,4-.3,6.8-.8,8.5-.6,1.7-1.8,3.4-3.7,4.9-1.9,1.5-4.3,2.5-7.1,2.9-2.9.4-5.3.2-7.2-.6-1.9-.8-3.1-2.1-3.8-3.9-.6-1.8-.9-4.5-.9-8.3v-11.2c0-2.8,0-4.8.3-6.2.2-1.4.8-2.8,1.7-4.2.9-1.4,2.2-2.6,3.9-3.6,1.7-1,3.6-1.6,5.7-1.9,2.9-.4,5.3-.2,7.3.7,1.9.9,3.2,2.1,3.8,3.7.6,1.6.9,4.2.9,7.8v3.6Z"/>
          <path class="st1" d="M103.8,79v38.3l-10,1.4v-38.3l10-1.4Z"/>
          <path class="st1" d="M107.8,78.4l16.6-2.4v7.7l-6.6.9v7.3l6.2-.9v7.3l-6.2.9v8.4l7.3-1v7.7l-17.3,2.4v-38.3Z"/>
          <path class="st1" d="M150.1,72.4v38.3l-8.7,1.2-5.2-16.7v17.4l-8.3,1.2v-38.3l8.3-1.2,5.6,16.4v-17.2l8.3-1.2Z"/>
          <path class="st1" d="M177.4,85.2l-10,1.4v-6.7c0-1.9-.1-3.1-.3-3.6-.2-.5-.7-.6-1.4-.5-.8.1-1.3.5-1.6,1.1-.2.6-.3,1.9-.3,3.8v17.8c0,1.9.1,3.1.3,3.6.2.5.7.7,1.5.6.7-.1,1.2-.5,1.5-1.1.2-.6.3-2,.3-4.1v-4.8l10-1.4v1.5c0,4-.3,6.8-.8,8.5-.6,1.7-1.8,3.4-3.7,4.9-1.9,1.5-4.3,2.5-7.1,2.9-2.9.4-5.3.2-7.2-.6-1.9-.8-3.1-2.1-3.8-3.9-.6-1.8-.9-4.5-.9-8.3v-11.2c0-2.8,0-4.8.3-6.2.2-1.4.8-2.8,1.7-4.2.9-1.4,2.2-2.6,3.9-3.6,1.7-1,3.6-1.6,5.7-1.9,2.9-.4,5.3-.2,7.3.7,1.9.9,3.2,2.1,3.8,3.7.6,1.6.9,4.2.9,7.8v3.6Z"/>
          <path class="st1" d="M180.9,68l16.6-2.4v7.7l-6.6.9v7.3l6.2-.9v7.3l-6.2.9v8.4l7.3-1v7.7l-17.3,2.4v-38.3Z"/>
        </g>
        <g>
          <path class="st3" d="M168,56.7c0-4.7,3-8.3,8.1-9.1,5.2-.7,8.1,2.1,8.1,6.8s-3,8.4-8.1,9.1c-5.1.7-8.1-2.1-8.1-6.8ZM179.2,55.1c0-4.1-.6-7.4-3-7.1-2.4.3-3,3.9-3,7.9s.6,7.5,3,7.1c2.4-.3,3-3.9,3-8Z"/>
          <path class="st3" d="M185,61.6c1.4-.3,2.6-1.2,2.6-3.7v-9.7l-2,.3v-.3c.4-.2.6-.3.9-.5.6-.4,1-1,1.2-2,.5-2.9,1.3-4.9,2.8-6.5,1.4-1.5,3.1-2.4,4.9-2.6,1.9-.3,3.7.5,3.7,2.3s-.6,2-1.8,2.6h-.5c-.6-2.2-1.8-4.1-3.1-3.9-1.4.2-1.6,2-1.6,3.3v5.1l4.8-.9-.5,2-4.4.6v9.6c0,2.7,1.1,3.1,3.5,2.9v.3c-2.6.3-4,.5-5.6.7-1.5.2-3.5.5-5.1.8v-.3Z"/>
        </g>
      </g>
    </g>
  </g>
</svg>